<?xml version="1.0" encoding="UTF-8" standalone="no"?>
<!DOCTYPE svg PUBLIC "-//W3C//DTD SVG 1.1//EN"
 "http://www.w3.org/Graphics/SVG/1.1/DTD/svg11.dtd">
<!-- Generated by graphviz version 9.0.0 (20230911.1827)
 -->
<!-- Pages: 1 -->
<svg width="549pt" height="240pt"
 viewBox="0.00 0.00 548.88 239.96" xmlns="http://www.w3.org/2000/svg" xmlns:xlink="http://www.w3.org/1999/xlink">
<g id="graph0" class="graph" transform="scale(1 1) rotate(0) translate(4 235.96)">
<polygon fill="white" stroke="none" points="-4,4 -4,-235.96 544.88,-235.96 544.88,4 -4,4"/>
<!-- &#45;1 &#45; Energy sensor -->
<g id="node1" class="node">
<title>&#45;1 &#45; Energy sensor</title>
<polygon fill="lightgray" stroke="black" points="319.5,-231.96 237.5,-231.96 237.5,-212.71 319.5,-212.71 319.5,-231.96"/>
<text text-anchor="middle" x="278.5" y="-219.41" font-family="Times New Roman,serif" font-size="9.00">&#45;1 &#45; Energy sensor</text>
</g>
<!-- 297 -->
<g id="node8" class="node">
<title>297</title>
<ellipse fill="white" stroke="black" cx="230.5" cy="-155.85" rx="20.86" ry="20.86"/>
<text text-anchor="middle" x="230.5" y="-152.93" font-family="Times New Roman,serif" font-size="9.00">297</text>
</g>
<!-- &#45;1 &#45; Energy sensor&#45;&gt;297 -->
<g id="edge10" class="edge">
<title>&#45;1 &#45; Energy sensor&#45;&gt;297</title>
<path fill="none" stroke="red" stroke-width="0.53" d="M271.83,-212.37C265.95,-204.48 257.11,-192.6 249.11,-181.85"/>
<polygon fill="red" stroke="red" stroke-width="0.53" points="251.93,-179.78 243.15,-173.85 246.31,-183.96 251.93,-179.78"/>
</g>
<!-- 299 -->
<g id="node9" class="node">
<title>299</title>
<ellipse fill="white" stroke="black" cx="170.5" cy="-155.85" rx="20.86" ry="20.86"/>
<text text-anchor="middle" x="170.5" y="-152.93" font-family="Times New Roman,serif" font-size="9.00">299</text>
</g>
<!-- &#45;1 &#45; Energy sensor&#45;&gt;299 -->
<g id="edge13" class="edge">
<title>&#45;1 &#45; Energy sensor&#45;&gt;299</title>
<path fill="none" stroke="red" stroke-width="0.25" d="M261.88,-212.24C245.97,-203.44 221.35,-189.56 200.5,-176.71 199.04,-175.81 197.54,-174.88 196.04,-173.92"/>
<polygon fill="red" stroke="red" stroke-width="0.25" points="198.12,-171.1 187.82,-168.59 194.31,-176.97 198.12,-171.1"/>
</g>
<!-- 300 -->
<g id="node10" class="node">
<title>300</title>
<ellipse fill="white" stroke="black" cx="328.5" cy="-155.85" rx="20.86" ry="20.86"/>
<text text-anchor="middle" x="328.5" y="-152.93" font-family="Times New Roman,serif" font-size="9.00">300</text>
</g>
<!-- &#45;1 &#45; Energy sensor&#45;&gt;300 -->
<g id="edge6" class="edge">
<title>&#45;1 &#45; Energy sensor&#45;&gt;300</title>
<path fill="none" stroke="red" stroke-width="0.53" d="M285.45,-212.37C291.68,-204.34 301.1,-192.19 309.54,-181.3"/>
<polygon fill="red" stroke="red" stroke-width="0.53" points="312.17,-183.63 315.53,-173.58 306.63,-179.34 312.17,-183.63"/>
</g>
<!-- &#45;2 &#45; Right poison sensor -->
<g id="node2" class="node">
<title>&#45;2 &#45; Right poison sensor</title>
<polygon fill="lightgray" stroke="black" points="103,-231.96 0,-231.96 0,-212.71 103,-212.71 103,-231.96"/>
<text text-anchor="middle" x="51.5" y="-219.41" font-family="Times New Roman,serif" font-size="9.00">&#45;2 &#45; Right poison sensor</text>
</g>
<!-- 0 &#45; left_speed -->
<g id="node6" class="node">
<title>0 &#45; left_speed</title>
<ellipse fill="lightblue" stroke="black" cx="165.5" cy="-49.5" rx="46.32" ry="46.32"/>
<text text-anchor="middle" x="165.5" y="-46.57" font-family="Times New Roman,serif" font-size="9.00">0 &#45; left_speed</text>
</g>
<!-- &#45;2 &#45; Right poison sensor&#45;&gt;0 &#45; left_speed -->
<g id="edge1" class="edge">
<title>&#45;2 &#45; Right poison sensor&#45;&gt;0 &#45; left_speed</title>
<path fill="none" stroke="green" stroke-width="0.57" d="M57.31,-212.63C71.27,-191.71 107.53,-137.37 134.24,-97.34"/>
<polygon fill="green" stroke="green" stroke-width="0.57" points="137.01,-99.5 139.65,-89.24 131.19,-95.61 137.01,-99.5"/>
</g>
<!-- 1 &#45; right_speed -->
<g id="node7" class="node">
<title>1 &#45; right_speed</title>
<ellipse fill="lightblue" stroke="black" cx="279.5" cy="-49.5" rx="49.5" ry="49.5"/>
<text text-anchor="middle" x="279.5" y="-46.57" font-family="Times New Roman,serif" font-size="9.00">1 &#45; right_speed</text>
</g>
<!-- &#45;2 &#45; Right poison sensor&#45;&gt;1 &#45; right_speed -->
<g id="edge12" class="edge">
<title>&#45;2 &#45; Right poison sensor&#45;&gt;1 &#45; right_speed</title>
<path fill="none" stroke="red" stroke-width="0.17" d="M64.19,-212.52C76.01,-204.02 93.81,-190.45 107.5,-176.71 124.19,-159.97 121.86,-149.53 140.5,-134.99 171.25,-111.02 187.37,-119.55 220.5,-98.99 225.34,-95.99 230.21,-92.64 234.97,-89.13"/>
<polygon fill="red" stroke="red" stroke-width="0.17" points="236.83,-92.11 242.65,-83.26 232.58,-86.55 236.83,-92.11"/>
</g>
<!-- &#45;2 &#45; Right poison sensor&#45;&gt;299 -->
<g id="edge16" class="edge">
<title>&#45;2 &#45; Right poison sensor&#45;&gt;299</title>
<path fill="none" stroke="red" stroke-width="0.52" d="M68.95,-212.25C85.99,-203.33 112.63,-189.27 135.5,-176.71 138.14,-175.26 140.89,-173.74 143.62,-172.2"/>
<polygon fill="red" stroke="red" stroke-width="0.52" points="145.07,-175.41 152.06,-167.44 141.63,-169.31 145.07,-175.41"/>
</g>
<!-- &#45;3 &#45; Left poison sensor -->
<g id="node3" class="node">
<title>&#45;3 &#45; Left poison sensor</title>
<polygon fill="lightgray" stroke="black" points="219.75,-231.96 121.25,-231.96 121.25,-212.71 219.75,-212.71 219.75,-231.96"/>
<text text-anchor="middle" x="170.5" y="-219.41" font-family="Times New Roman,serif" font-size="9.00">&#45;3 &#45; Left poison sensor</text>
</g>
<!-- &#45;3 &#45; Left poison sensor&#45;&gt;0 &#45; left_speed -->
<g id="edge17" class="edge">
<title>&#45;3 &#45; Left poison sensor&#45;&gt;0 &#45; left_speed</title>
<path fill="none" stroke="red" stroke-width="0.13" d="M162,-212.28C154.7,-203.82 144.69,-190.47 140.5,-176.71 133.12,-152.5 137.17,-125 143.98,-101.86"/>
<polygon fill="red" stroke="red" stroke-width="0.13" points="147.28,-103.01 146.98,-92.42 140.61,-100.89 147.28,-103.01"/>
</g>
<!-- &#45;3 &#45; Left poison sensor&#45;&gt;1 &#45; right_speed -->
<g id="edge15" class="edge">
<title>&#45;3 &#45; Left poison sensor&#45;&gt;1 &#45; right_speed</title>
<path fill="none" stroke="green" stroke-width="0.1" d="M206.54,-212.24C225.55,-205.56 247.55,-194.47 260.5,-176.71 274.54,-157.45 280.14,-132.09 281.91,-109.15"/>
<polygon fill="green" stroke="green" stroke-width="0.1" points="285.39,-109.49 282.45,-99.31 278.4,-109.11 285.39,-109.49"/>
</g>
<!-- &#45;3 &#45; Left poison sensor&#45;&gt;297 -->
<g id="edge22" class="edge">
<title>&#45;3 &#45; Left poison sensor&#45;&gt;297</title>
<path fill="none" stroke="red" stroke-width="0.19" d="M178.84,-212.37C186.74,-203.88 198.94,-190.78 209.49,-179.43"/>
<polygon fill="red" stroke="red" stroke-width="0.19" points="212.02,-181.86 216.27,-172.15 206.89,-177.09 212.02,-181.86"/>
</g>
<!-- &#45;3 &#45; Left poison sensor&#45;&gt;299 -->
<g id="edge3" class="edge">
<title>&#45;3 &#45; Left poison sensor&#45;&gt;299</title>
<path fill="none" stroke="red" stroke-width="0.27" d="M170.5,-212.37C170.5,-205.86 170.5,-196.62 170.5,-187.55"/>
<polygon fill="red" stroke="red" stroke-width="0.27" points="174,-187.56 170.5,-177.56 167,-187.56 174,-187.56"/>
</g>
<!-- &#45;3 &#45; Left poison sensor&#45;&gt;300 -->
<g id="edge7" class="edge">
<title>&#45;3 &#45; Left poison sensor&#45;&gt;300</title>
<path fill="none" stroke="green" stroke-width="0.29" d="M199.88,-212.23C225.15,-204.02 262.35,-191.08 293.5,-176.71 296.33,-175.41 299.23,-173.96 302.1,-172.45"/>
<polygon fill="green" stroke="green" stroke-width="0.29" points="303.54,-175.65 310.61,-167.76 300.16,-169.52 303.54,-175.65"/>
</g>
<!-- &#45;4 &#45; Right food sensor -->
<g id="node4" class="node">
<title>&#45;4 &#45; Right food sensor</title>
<polygon fill="lightgray" stroke="black" points="540.88,-231.96 446.12,-231.96 446.12,-212.71 540.88,-212.71 540.88,-231.96"/>
<text text-anchor="middle" x="493.5" y="-219.41" font-family="Times New Roman,serif" font-size="9.00">&#45;4 &#45; Right food sensor</text>
</g>
<!-- &#45;4 &#45; Right food sensor&#45;&gt;1 &#45; right_speed -->
<g id="edge2" class="edge">
<title>&#45;4 &#45; Right food sensor&#45;&gt;1 &#45; right_speed</title>
<path fill="none" stroke="green" stroke-width="0.16" d="M489.49,-212.47C481.49,-195.58 462.09,-158.38 436.5,-134.99 406.87,-107.91 366.96,-86.58 334.8,-72.13"/>
<polygon fill="green" stroke="green" stroke-width="0.16" points="336.31,-68.97 325.74,-68.15 333.49,-75.38 336.31,-68.97"/>
</g>
<!-- &#45;4 &#45; Right food sensor&#45;&gt;300 -->
<g id="edge19" class="edge">
<title>&#45;4 &#45; Right food sensor&#45;&gt;300</title>
<path fill="none" stroke="red" stroke-width="0.43" d="M469.22,-212.31C445.51,-203.43 408.42,-189.4 376.5,-176.71 370.23,-174.22 363.53,-171.49 357.18,-168.87"/>
<polygon fill="red" stroke="red" stroke-width="0.43" points="358.78,-165.75 348.2,-165.15 356.1,-172.21 358.78,-165.75"/>
</g>
<!-- 301 -->
<g id="node11" class="node">
<title>301</title>
<ellipse fill="white" stroke="black" cx="406.5" cy="-155.85" rx="20.86" ry="20.86"/>
<text text-anchor="middle" x="406.5" y="-152.93" font-family="Times New Roman,serif" font-size="9.00">301</text>
</g>
<!-- &#45;4 &#45; Right food sensor&#45;&gt;301 -->
<g id="edge21" class="edge">
<title>&#45;4 &#45; Right food sensor&#45;&gt;301</title>
<path fill="none" stroke="red" stroke-width="0.4" d="M481.4,-212.37C468.44,-202.77 447.52,-187.26 431.07,-175.07"/>
<polygon fill="red" stroke="red" stroke-width="0.4" points="433.55,-172.55 423.43,-169.4 429.38,-178.17 433.55,-172.55"/>
</g>
<!-- &#45;5 &#45; Left food sensor -->
<g id="node5" class="node">
<title>&#45;5 &#45; Left food sensor</title>
<polygon fill="lightgray" stroke="black" points="427.62,-231.96 337.38,-231.96 337.38,-212.71 427.62,-212.71 427.62,-231.96"/>
<text text-anchor="middle" x="382.5" y="-219.41" font-family="Times New Roman,serif" font-size="9.00">&#45;5 &#45; Left food sensor</text>
</g>
<!-- &#45;5 &#45; Left food sensor&#45;&gt;301 -->
<g id="edge14" class="edge">
<title>&#45;5 &#45; Left food sensor&#45;&gt;301</title>
<path fill="none" stroke="green" stroke-width="0.27" d="M385.84,-212.37C388.46,-205.31 392.28,-195.07 395.92,-185.29"/>
<polygon fill="green" stroke="green" stroke-width="0.27" points="399.1,-186.78 399.3,-176.19 392.53,-184.34 399.1,-186.78"/>
</g>
<!-- 297&#45;&gt;0 &#45; left_speed -->
<g id="edge18" class="edge">
<title>297&#45;&gt;0 &#45; left_speed</title>
<path fill="none" stroke="green" stroke-width="0.19" d="M219.77,-137.62C213.02,-126.79 203.95,-112.23 195.16,-98.12"/>
<polygon fill="green" stroke="green" stroke-width="0.19" points="198.16,-96.32 189.9,-89.68 192.22,-100.02 198.16,-96.32"/>
</g>
<!-- 297&#45;&gt;1 &#45; right_speed -->
<g id="edge8" class="edge">
<title>297&#45;&gt;1 &#45; right_speed</title>
<path fill="none" stroke="red" stroke-width="0.44" d="M239.04,-136.68C243.36,-127.46 248.87,-115.74 254.41,-103.93"/>
<polygon fill="red" stroke="red" stroke-width="0.44" points="257.48,-105.63 258.56,-95.09 251.14,-102.65 257.48,-105.63"/>
</g>
<!-- 299&#45;&gt;0 &#45; left_speed -->
<g id="edge5" class="edge">
<title>299&#45;&gt;0 &#45; left_speed</title>
<path fill="none" stroke="red" stroke-width="0.44" d="M169.54,-134.73C169.14,-126.56 168.67,-116.67 168.19,-106.58"/>
<polygon fill="red" stroke="red" stroke-width="0.44" points="171.69,-106.55 167.71,-96.73 164.7,-106.88 171.69,-106.55"/>
</g>
<!-- 299&#45;&gt;1 &#45; right_speed -->
<g id="edge11" class="edge">
<title>299&#45;&gt;1 &#45; right_speed</title>
<path fill="none" stroke="red" stroke-width="0.46" d="M185.2,-140.78C198.32,-128.22 218.2,-109.19 236.33,-91.83"/>
<polygon fill="red" stroke="red" stroke-width="0.46" points="238.67,-94.43 243.47,-84.99 233.83,-89.38 238.67,-94.43"/>
</g>
<!-- 300&#45;&gt;1 &#45; right_speed -->
<g id="edge9" class="edge">
<title>300&#45;&gt;1 &#45; right_speed</title>
<path fill="none" stroke="red" stroke-width="0.45" d="M319.96,-136.68C315.64,-127.46 310.13,-115.74 304.59,-103.93"/>
<polygon fill="red" stroke="red" stroke-width="0.45" points="307.86,-102.67 300.44,-95.1 301.53,-105.64 307.86,-102.67"/>
</g>
<!-- 300&#45;&gt;300 -->
<g id="edge20" class="edge">
<title>300&#45;&gt;300</title>
<path fill="none" stroke="green" stroke-width="0.19" d="M346.08,-167.44C356.99,-170.23 367.36,-166.37 367.36,-155.85 367.36,-148.79 362.68,-144.73 356.3,-143.67"/>
<polygon fill="green" stroke="green" stroke-width="0.19" points="356.15,-140.17 346.37,-144.25 356.56,-147.16 356.15,-140.17"/>
</g>
<!-- 301&#45;&gt;0 &#45; left_speed -->
<g id="edge4" class="edge">
<title>301&#45;&gt;0 &#45; left_speed</title>
<path fill="none" stroke="red" stroke-width="0.45" d="M389.97,-142.4C385.74,-139.65 381.09,-136.97 376.5,-134.99 311.54,-107.03 284.52,-131.09 221.5,-98.99 216.21,-96.3 211.01,-93.01 206.04,-89.41"/>
<polygon fill="red" stroke="red" stroke-width="0.45" points="208.51,-86.9 198.46,-83.55 204.23,-92.44 208.51,-86.9"/>
</g>
</g>
</svg>
