<?xml version="1.0" encoding="UTF-8" standalone="no"?>
<!DOCTYPE svg PUBLIC "-//W3C//DTD SVG 1.1//EN"
 "http://www.w3.org/Graphics/SVG/1.1/DTD/svg11.dtd">
<!-- Generated by graphviz version 9.0.0 (20230911.1827)
 -->
<!-- Pages: 1 -->
<svg width="549pt" height="240pt"
 viewBox="0.00 0.00 548.50 239.96" xmlns="http://www.w3.org/2000/svg" xmlns:xlink="http://www.w3.org/1999/xlink">
<g id="graph0" class="graph" transform="scale(1 1) rotate(0) translate(4 235.96)">
<polygon fill="white" stroke="none" points="-4,4 -4,-235.96 544.5,-235.96 544.5,4 -4,4"/>
<!-- &#45;1 &#45; Energy sensor -->
<g id="node1" class="node">
<title>&#45;1 &#45; Energy sensor</title>
<polygon fill="lightgray" stroke="black" points="194.38,-231.96 112.38,-231.96 112.38,-212.71 194.38,-212.71 194.38,-231.96"/>
<text text-anchor="middle" x="153.38" y="-219.41" font-family="Times New Roman,serif" font-size="9.00">&#45;1 &#45; Energy sensor</text>
</g>
<!-- 297 -->
<g id="node8" class="node">
<title>297</title>
<ellipse fill="white" stroke="black" cx="169.38" cy="-155.85" rx="20.86" ry="20.86"/>
<text text-anchor="middle" x="169.38" y="-152.93" font-family="Times New Roman,serif" font-size="9.00">297</text>
</g>
<!-- &#45;1 &#45; Energy sensor&#45;&gt;297 -->
<g id="edge11" class="edge">
<title>&#45;1 &#45; Energy sensor&#45;&gt;297</title>
<path fill="none" stroke="red" stroke-width="0.53" d="M155.6,-212.37C157.26,-205.68 159.63,-196.14 161.94,-186.84"/>
<polygon fill="red" stroke="red" stroke-width="0.53" points="165.27,-187.94 164.28,-177.4 158.47,-186.26 165.27,-187.94"/>
</g>
<!-- 299 -->
<g id="node9" class="node">
<title>299</title>
<ellipse fill="white" stroke="black" cx="267.38" cy="-155.85" rx="20.86" ry="20.86"/>
<text text-anchor="middle" x="267.38" y="-152.93" font-family="Times New Roman,serif" font-size="9.00">299</text>
</g>
<!-- &#45;1 &#45; Energy sensor&#45;&gt;299 -->
<g id="edge14" class="edge">
<title>&#45;1 &#45; Energy sensor&#45;&gt;299</title>
<path fill="none" stroke="red" stroke-width="0.25" d="M169.23,-212.37C187.64,-201.96 218.33,-184.6 240.49,-172.06"/>
<polygon fill="red" stroke="red" stroke-width="0.25" points="242.1,-175.17 249.08,-167.2 238.65,-169.08 242.1,-175.17"/>
</g>
<!-- 300 -->
<g id="node10" class="node">
<title>300</title>
<ellipse fill="white" stroke="black" cx="91.38" cy="-155.85" rx="20.86" ry="20.86"/>
<text text-anchor="middle" x="91.38" y="-152.93" font-family="Times New Roman,serif" font-size="9.00">300</text>
</g>
<!-- &#45;1 &#45; Energy sensor&#45;&gt;300 -->
<g id="edge6" class="edge">
<title>&#45;1 &#45; Energy sensor&#45;&gt;300</title>
<path fill="none" stroke="red" stroke-width="0.53" d="M144.75,-212.37C136.54,-203.83 123.82,-190.6 112.87,-179.21"/>
<polygon fill="red" stroke="red" stroke-width="0.53" points="115.65,-177.06 106.2,-172.27 110.61,-181.91 115.65,-177.06"/>
</g>
<!-- &#45;2 &#45; Right poison sensor -->
<g id="node2" class="node">
<title>&#45;2 &#45; Right poison sensor</title>
<polygon fill="lightgray" stroke="black" points="431.88,-231.96 328.88,-231.96 328.88,-212.71 431.88,-212.71 431.88,-231.96"/>
<text text-anchor="middle" x="380.38" y="-219.41" font-family="Times New Roman,serif" font-size="9.00">&#45;2 &#45; Right poison sensor</text>
</g>
<!-- 0 &#45; left_speed -->
<g id="node6" class="node">
<title>0 &#45; left_speed</title>
<ellipse fill="lightblue" stroke="black" cx="354.38" cy="-49.5" rx="46.32" ry="46.32"/>
<text text-anchor="middle" x="354.38" y="-46.57" font-family="Times New Roman,serif" font-size="9.00">0 &#45; left_speed</text>
</g>
<!-- &#45;2 &#45; Right poison sensor&#45;&gt;0 &#45; left_speed -->
<g id="edge1" class="edge">
<title>&#45;2 &#45; Right poison sensor&#45;&gt;0 &#45; left_speed</title>
<path fill="none" stroke="green" stroke-width="0.57" d="M397.48,-212.36C409.99,-204.74 426.02,-192.53 433.38,-176.71 441.2,-159.9 440.18,-152.24 433.38,-134.99 426.03,-116.4 412.45,-99.48 398.6,-85.76"/>
<polygon fill="green" stroke="green" stroke-width="0.57" points="401.2,-83.4 391.53,-79.06 396.38,-88.48 401.2,-83.4"/>
</g>
<!-- 1 &#45; right_speed -->
<g id="node7" class="node">
<title>1 &#45; right_speed</title>
<ellipse fill="lightblue" stroke="black" cx="194.38" cy="-49.5" rx="49.5" ry="49.5"/>
<text text-anchor="middle" x="194.38" y="-46.57" font-family="Times New Roman,serif" font-size="9.00">1 &#45; right_speed</text>
</g>
<!-- &#45;2 &#45; Right poison sensor&#45;&gt;1 &#45; right_speed -->
<g id="edge13" class="edge">
<title>&#45;2 &#45; Right poison sensor&#45;&gt;1 &#45; right_speed</title>
<path fill="none" stroke="red" stroke-width="0.17" d="M372.45,-212.43C358.05,-196.38 326.39,-161.81 297.38,-134.99 279.39,-118.37 258.67,-101.05 240.54,-86.44"/>
<polygon fill="red" stroke="red" stroke-width="0.17" points="243.14,-84.04 233.15,-80.52 238.76,-89.5 243.14,-84.04"/>
</g>
<!-- &#45;2 &#45; Right poison sensor&#45;&gt;299 -->
<g id="edge17" class="edge">
<title>&#45;2 &#45; Right poison sensor&#45;&gt;299</title>
<path fill="none" stroke="red" stroke-width="0.52" d="M364.66,-212.37C346.49,-202 316.27,-184.75 294.32,-172.23"/>
<polygon fill="red" stroke="red" stroke-width="0.52" points="296.29,-169.33 285.87,-167.41 292.82,-175.41 296.29,-169.33"/>
</g>
<!-- 301 -->
<g id="node11" class="node">
<title>301</title>
<ellipse fill="white" stroke="black" cx="403.38" cy="-155.85" rx="20.86" ry="20.86"/>
<text text-anchor="middle" x="403.38" y="-152.93" font-family="Times New Roman,serif" font-size="9.00">301</text>
</g>
<!-- &#45;2 &#45; Right poison sensor&#45;&gt;301 -->
<g id="edge9" class="edge">
<title>&#45;2 &#45; Right poison sensor&#45;&gt;301</title>
<path fill="none" stroke="green" stroke-width="0.14" stroke-dasharray="1,5" d="M383.57,-212.37C386.07,-205.37 389.69,-195.22 393.16,-185.51"/>
<polygon fill="green" stroke="green" stroke-width="0.14" points="396.39,-186.87 396.45,-176.27 389.79,-184.51 396.39,-186.87"/>
</g>
<!-- &#45;3 &#45; Left poison sensor -->
<g id="node3" class="node">
<title>&#45;3 &#45; Left poison sensor</title>
<polygon fill="lightgray" stroke="black" points="310.62,-231.96 212.12,-231.96 212.12,-212.71 310.62,-212.71 310.62,-231.96"/>
<text text-anchor="middle" x="261.38" y="-219.41" font-family="Times New Roman,serif" font-size="9.00">&#45;3 &#45; Left poison sensor</text>
</g>
<!-- &#45;3 &#45; Left poison sensor&#45;&gt;0 &#45; left_speed -->
<g id="edge18" class="edge">
<title>&#45;3 &#45; Left poison sensor&#45;&gt;0 &#45; left_speed</title>
<path fill="none" stroke="red" stroke-width="0.13" d="M269.84,-212.29C277.65,-203.62 289.24,-189.94 297.38,-176.71 311.66,-153.5 324.47,-126.09 334.31,-102.75"/>
<polygon fill="red" stroke="red" stroke-width="0.13" points="337.53,-104.13 338.13,-93.55 331.07,-101.45 337.53,-104.13"/>
</g>
<!-- &#45;3 &#45; Left poison sensor&#45;&gt;1 &#45; right_speed -->
<g id="edge16" class="edge">
<title>&#45;3 &#45; Left poison sensor&#45;&gt;1 &#45; right_speed</title>
<path fill="none" stroke="green" stroke-width="0.1" d="M255.96,-212.33C250.77,-203.47 242.93,-189.46 237.38,-176.71 227.63,-154.35 218.62,-129 211.39,-106.92"/>
<polygon fill="green" stroke="green" stroke-width="0.1" points="214.75,-105.94 208.35,-97.5 208.09,-108.09 214.75,-105.94"/>
</g>
<!-- &#45;3 &#45; Left poison sensor&#45;&gt;297 -->
<g id="edge23" class="edge">
<title>&#45;3 &#45; Left poison sensor&#45;&gt;297</title>
<path fill="none" stroke="red" stroke-width="0.19" d="M248.58,-212.37C234.58,-202.56 211.79,-186.58 194.24,-174.28"/>
<polygon fill="red" stroke="red" stroke-width="0.19" points="196.55,-171.63 186.35,-168.75 192.53,-177.36 196.55,-171.63"/>
</g>
<!-- &#45;3 &#45; Left poison sensor&#45;&gt;299 -->
<g id="edge3" class="edge">
<title>&#45;3 &#45; Left poison sensor&#45;&gt;299</title>
<path fill="none" stroke="red" stroke-width="0.27" d="M262.21,-212.37C262.83,-205.73 263.71,-196.28 264.57,-187.05"/>
<polygon fill="red" stroke="red" stroke-width="0.27" points="268.03,-187.57 265.47,-177.29 261.06,-186.92 268.03,-187.57"/>
</g>
<!-- &#45;3 &#45; Left poison sensor&#45;&gt;300 -->
<g id="edge7" class="edge">
<title>&#45;3 &#45; Left poison sensor&#45;&gt;300</title>
<path fill="none" stroke="green" stroke-width="0.29" d="M235.55,-212.25C210.78,-203.44 172.37,-189.57 139.38,-176.71 133.09,-174.27 126.38,-171.55 120.03,-168.94"/>
<polygon fill="green" stroke="green" stroke-width="0.29" points="121.44,-165.74 110.86,-165.13 118.76,-172.2 121.44,-165.74"/>
</g>
<!-- &#45;4 &#45; Right food sensor -->
<g id="node4" class="node">
<title>&#45;4 &#45; Right food sensor</title>
<polygon fill="lightgray" stroke="black" points="94.75,-231.96 0,-231.96 0,-212.71 94.75,-212.71 94.75,-231.96"/>
<text text-anchor="middle" x="47.38" y="-219.41" font-family="Times New Roman,serif" font-size="9.00">&#45;4 &#45; Right food sensor</text>
</g>
<!-- &#45;4 &#45; Right food sensor&#45;&gt;1 &#45; right_speed -->
<g id="edge2" class="edge">
<title>&#45;4 &#45; Right food sensor&#45;&gt;1 &#45; right_speed</title>
<path fill="none" stroke="green" stroke-width="0.16" d="M46.55,-212.41C45.48,-195.74 45.33,-159.34 61.38,-134.99 79.91,-106.88 111.36,-86.27 139.03,-72.44"/>
<polygon fill="green" stroke="green" stroke-width="0.16" points="140.53,-75.61 148.03,-68.12 137.5,-69.3 140.53,-75.61"/>
</g>
<!-- &#45;4 &#45; Right food sensor&#45;&gt;300 -->
<g id="edge20" class="edge">
<title>&#45;4 &#45; Right food sensor&#45;&gt;300</title>
<path fill="none" stroke="red" stroke-width="0.43" d="M53.49,-212.37C58.81,-204.59 66.77,-192.92 74.02,-182.29"/>
<polygon fill="red" stroke="red" stroke-width="0.43" points="76.76,-184.48 79.51,-174.25 70.98,-180.54 76.76,-184.48"/>
</g>
<!-- &#45;4 &#45; Right food sensor&#45;&gt;301 -->
<g id="edge22" class="edge">
<title>&#45;4 &#45; Right food sensor&#45;&gt;301</title>
<path fill="none" stroke="red" stroke-width="0.4" d="M94.86,-212.99C145.16,-204.11 226.9,-189.61 297.38,-176.71 322.63,-172.1 351.23,-166.73 372.36,-162.74"/>
<polygon fill="red" stroke="red" stroke-width="0.4" points="372.9,-166.2 382.07,-160.9 371.6,-159.32 372.9,-166.2"/>
</g>
<!-- &#45;5 &#45; Left food sensor -->
<g id="node5" class="node">
<title>&#45;5 &#45; Left food sensor</title>
<polygon fill="lightgray" stroke="black" points="540.5,-231.96 450.25,-231.96 450.25,-212.71 540.5,-212.71 540.5,-231.96"/>
<text text-anchor="middle" x="495.38" y="-219.41" font-family="Times New Roman,serif" font-size="9.00">&#45;5 &#45; Left food sensor</text>
</g>
<!-- &#45;5 &#45; Left food sensor&#45;&gt;301 -->
<g id="edge15" class="edge">
<title>&#45;5 &#45; Left food sensor&#45;&gt;301</title>
<path fill="none" stroke="green" stroke-width="0.27" d="M482.58,-212.37C468.58,-202.56 445.79,-186.58 428.24,-174.28"/>
<polygon fill="green" stroke="green" stroke-width="0.27" points="430.64,-171.69 420.44,-168.82 426.62,-177.42 430.64,-171.69"/>
</g>
<!-- 297&#45;&gt;0 &#45; left_speed -->
<g id="edge19" class="edge">
<title>297&#45;&gt;0 &#45; left_speed</title>
<path fill="none" stroke="green" stroke-width="0.19" d="M187.45,-144.66C214.58,-129.35 266.8,-99.9 305.64,-77.99"/>
<polygon fill="green" stroke="green" stroke-width="0.19" points="306.96,-81.26 313.95,-73.3 303.52,-75.16 306.96,-81.26"/>
</g>
<!-- 297&#45;&gt;1 &#45; right_speed -->
<g id="edge8" class="edge">
<title>297&#45;&gt;1 &#45; right_speed</title>
<path fill="none" stroke="red" stroke-width="0.44" d="M174.08,-135.23C175.97,-127.34 178.25,-117.8 180.6,-108.01"/>
<polygon fill="red" stroke="red" stroke-width="0.44" points="183.97,-108.95 182.9,-98.41 177.16,-107.32 183.97,-108.95"/>
</g>
<!-- 299&#45;&gt;0 &#45; left_speed -->
<g id="edge5" class="edge">
<title>299&#45;&gt;0 &#45; left_speed</title>
<path fill="none" stroke="red" stroke-width="0.44" d="M280.21,-139.46C290.29,-127.37 304.82,-109.94 318.36,-93.69"/>
<polygon fill="red" stroke="red" stroke-width="0.44" points="320.76,-96.28 324.48,-86.36 315.39,-91.8 320.76,-96.28"/>
</g>
<!-- 299&#45;&gt;1 &#45; right_speed -->
<g id="edge12" class="edge">
<title>299&#45;&gt;1 &#45; right_speed</title>
<path fill="none" stroke="red" stroke-width="0.46" d="M255.65,-138.09C248.24,-127.5 238.25,-113.22 228.49,-99.26"/>
<polygon fill="red" stroke="red" stroke-width="0.46" points="231.46,-97.41 222.86,-91.22 225.73,-101.42 231.46,-97.41"/>
</g>
<!-- 300&#45;&gt;1 &#45; right_speed -->
<g id="edge10" class="edge">
<title>300&#45;&gt;1 &#45; right_speed</title>
<path fill="none" stroke="red" stroke-width="0.45" d="M105.7,-140.34C117.78,-128.11 135.7,-109.95 152.28,-93.15"/>
<polygon fill="red" stroke="red" stroke-width="0.45" points="154.76,-95.61 159.3,-86.04 149.78,-90.7 154.76,-95.61"/>
</g>
<!-- 300&#45;&gt;300 -->
<g id="edge21" class="edge">
<title>300&#45;&gt;300</title>
<path fill="none" stroke="green" stroke-width="0.19" d="M108.96,-167.44C119.86,-170.23 130.23,-166.37 130.23,-155.85 130.23,-148.79 125.55,-144.73 119.17,-143.67"/>
<polygon fill="green" stroke="green" stroke-width="0.19" points="119.02,-140.17 109.24,-144.25 119.43,-147.16 119.02,-140.17"/>
</g>
<!-- 301&#45;&gt;0 &#45; left_speed -->
<g id="edge4" class="edge">
<title>301&#45;&gt;0 &#45; left_speed</title>
<path fill="none" stroke="red" stroke-width="0.45" d="M394.84,-136.68C390.21,-126.81 384.23,-114.07 378.29,-101.43"/>
<polygon fill="red" stroke="red" stroke-width="0.45" points="381.5,-100.02 374.08,-92.46 375.16,-103 381.5,-100.02"/>
</g>
</g>
</svg>
