<?xml version="1.0" encoding="UTF-8" standalone="no"?>
<!DOCTYPE svg PUBLIC "-//W3C//DTD SVG 1.1//EN"
 "http://www.w3.org/Graphics/SVG/1.1/DTD/svg11.dtd">
<!-- Generated by graphviz version 9.0.0 (20230911.1827)
 -->
<!-- Pages: 1 -->
<svg width="577pt" height="291pt"
 viewBox="0.00 0.00 577.14 290.88" xmlns="http://www.w3.org/2000/svg" xmlns:xlink="http://www.w3.org/1999/xlink">
<g id="graph0" class="graph" transform="scale(1 1) rotate(0) translate(4 286.88)">
<polygon fill="white" stroke="none" points="-4,4 -4,-286.88 573.14,-286.88 573.14,4 -4,4"/>
<!-- &#45;1 &#45; Energy sensor -->
<g id="node1" class="node">
<title>&#45;1 &#45; Energy sensor</title>
<polygon fill="lightgray" stroke="black" points="428.12,-282.88 346.12,-282.88 346.12,-263.63 428.12,-263.63 428.12,-282.88"/>
<text text-anchor="middle" x="387.12" y="-270.33" font-family="Times New Roman,serif" font-size="9.00">&#45;1 &#45; Energy sensor</text>
</g>
<!-- 232 -->
<g id="node8" class="node">
<title>232</title>
<ellipse fill="white" stroke="black" cx="267.12" cy="-178.13" rx="20.86" ry="20.86"/>
<text text-anchor="middle" x="267.12" y="-175.2" font-family="Times New Roman,serif" font-size="9.00">232</text>
</g>
<!-- &#45;1 &#45; Energy sensor&#45;&gt;232 -->
<g id="edge4" class="edge">
<title>&#45;1 &#45; Energy sensor&#45;&gt;232</title>
<path fill="none" stroke="red" stroke-width="0.38" d="M359.56,-263.19C340.4,-255.87 315.18,-244.06 297.12,-227.63 290.64,-221.72 285.05,-214.09 280.51,-206.65"/>
<polygon fill="red" stroke="red" stroke-width="0.38" points="283.58,-204.96 275.63,-197.96 277.48,-208.39 283.58,-204.96"/>
</g>
<!-- 233 -->
<g id="node9" class="node">
<title>233</title>
<ellipse fill="white" stroke="black" cx="327.12" cy="-178.13" rx="20.86" ry="20.86"/>
<text text-anchor="middle" x="327.12" y="-175.2" font-family="Times New Roman,serif" font-size="9.00">233</text>
</g>
<!-- &#45;1 &#45; Energy sensor&#45;&gt;233 -->
<g id="edge11" class="edge">
<title>&#45;1 &#45; Energy sensor&#45;&gt;233</title>
<path fill="none" stroke="green" stroke-width="0.27" d="M381.05,-263.43C374.92,-254.47 365.22,-240.18 357.12,-227.63 352.45,-220.37 347.47,-212.43 342.95,-205.12"/>
<polygon fill="green" stroke="green" stroke-width="0.27" points="345.96,-203.32 337.74,-196.64 339.99,-206.99 345.96,-203.32"/>
</g>
<!-- 235 -->
<g id="node11" class="node">
<title>235</title>
<ellipse fill="white" stroke="black" cx="387.12" cy="-178.13" rx="20.86" ry="20.86"/>
<text text-anchor="middle" x="387.12" y="-175.2" font-family="Times New Roman,serif" font-size="9.00">235</text>
</g>
<!-- &#45;1 &#45; Energy sensor&#45;&gt;235 -->
<g id="edge22" class="edge">
<title>&#45;1 &#45; Energy sensor&#45;&gt;235</title>
<path fill="none" stroke="red" stroke-width="0.32" d="M387.12,-263.32C387.12,-251.07 387.12,-228.43 387.12,-209.71"/>
<polygon fill="red" stroke="red" stroke-width="0.32" points="390.63,-209.73 387.13,-199.73 383.63,-209.73 390.63,-209.73"/>
</g>
<!-- &#45;2 &#45; Right poison sensor -->
<g id="node2" class="node">
<title>&#45;2 &#45; Right poison sensor</title>
<polygon fill="lightgray" stroke="black" points="327.62,-282.88 224.62,-282.88 224.62,-263.63 327.62,-263.63 327.62,-282.88"/>
<text text-anchor="middle" x="276.12" y="-270.33" font-family="Times New Roman,serif" font-size="9.00">&#45;2 &#45; Right poison sensor</text>
</g>
<!-- &#45;2 &#45; Right poison sensor&#45;&gt;233 -->
<g id="edge9" class="edge">
<title>&#45;2 &#45; Right poison sensor&#45;&gt;233</title>
<path fill="none" stroke="green" stroke-width="0.35" d="M281.02,-263.32C288.14,-250.31 301.67,-225.6 312.24,-206.3"/>
<polygon fill="green" stroke="green" stroke-width="0.35" points="315.31,-207.99 317.04,-197.54 309.17,-204.63 315.31,-207.99"/>
</g>
<!-- 236 -->
<g id="node12" class="node">
<title>236</title>
<ellipse fill="white" stroke="black" cx="91.12" cy="-178.13" rx="20.86" ry="20.86"/>
<text text-anchor="middle" x="91.12" y="-175.2" font-family="Times New Roman,serif" font-size="9.00">236</text>
</g>
<!-- &#45;2 &#45; Right poison sensor&#45;&gt;236 -->
<g id="edge24" class="edge">
<title>&#45;2 &#45; Right poison sensor&#45;&gt;236</title>
<path fill="none" stroke="red" stroke-width="0.18" d="M254.62,-263.22C234.39,-254.57 203.37,-240.91 177.12,-227.63 156.87,-217.37 134.54,-204.75 117.72,-194.95"/>
<polygon fill="red" stroke="red" stroke-width="0.18" points="119.62,-192 109.23,-189.97 116.08,-198.04 119.62,-192"/>
</g>
<!-- &#45;3 &#45; Left poison sensor -->
<g id="node3" class="node">
<title>&#45;3 &#45; Left poison sensor</title>
<polygon fill="lightgray" stroke="black" points="206.38,-282.88 107.88,-282.88 107.88,-263.63 206.38,-263.63 206.38,-282.88"/>
<text text-anchor="middle" x="157.12" y="-270.33" font-family="Times New Roman,serif" font-size="9.00">&#45;3 &#45; Left poison sensor</text>
</g>
<!-- 0 &#45; left_speed -->
<g id="node6" class="node">
<title>0 &#45; left_speed</title>
<ellipse fill="lightblue" stroke="black" cx="207.12" cy="-46.32" rx="46.32" ry="46.32"/>
<text text-anchor="middle" x="207.12" y="-43.39" font-family="Times New Roman,serif" font-size="9.00">0 &#45; left_speed</text>
</g>
<!-- &#45;3 &#45; Left poison sensor&#45;&gt;0 &#45; left_speed -->
<g id="edge1" class="edge">
<title>&#45;3 &#45; Left poison sensor&#45;&gt;0 &#45; left_speed</title>
<path fill="none" stroke="green" stroke-width="0.33" d="M157.69,-263.38C159.29,-240.67 164.56,-178.69 177.12,-128.63 179.54,-118.99 182.71,-108.91 186.08,-99.26"/>
<polygon fill="green" stroke="green" stroke-width="0.33" points="189.37,-100.47 189.47,-89.87 182.78,-98.09 189.37,-100.47"/>
</g>
<!-- &#45;3 &#45; Left poison sensor&#45;&gt;232 -->
<g id="edge19" class="edge">
<title>&#45;3 &#45; Left poison sensor&#45;&gt;232</title>
<path fill="none" stroke="red" stroke-width="0.21" d="M180.16,-263.19C197.33,-255.59 220.57,-243.45 237.12,-227.63 243.61,-221.43 249.26,-213.55 253.85,-205.95"/>
<polygon fill="red" stroke="red" stroke-width="0.21" points="256.72,-207.99 258.59,-197.56 250.63,-204.55 256.72,-207.99"/>
</g>
<!-- 234 -->
<g id="node10" class="node">
<title>234</title>
<ellipse fill="white" stroke="black" cx="207.12" cy="-178.13" rx="20.86" ry="20.86"/>
<text text-anchor="middle" x="207.12" y="-175.2" font-family="Times New Roman,serif" font-size="9.00">234</text>
</g>
<!-- &#45;3 &#45; Left poison sensor&#45;&gt;234 -->
<g id="edge2" class="edge">
<title>&#45;3 &#45; Left poison sensor&#45;&gt;234</title>
<path fill="none" stroke="green" stroke-width="0.14" d="M161.92,-263.32C168.93,-250.26 182.29,-225.38 192.68,-206.04"/>
<polygon fill="green" stroke="green" stroke-width="0.14" points="195.74,-207.72 197.39,-197.26 189.58,-204.41 195.74,-207.72"/>
</g>
<!-- &#45;3 &#45; Left poison sensor&#45;&gt;236 -->
<g id="edge16" class="edge">
<title>&#45;3 &#45; Left poison sensor&#45;&gt;236</title>
<path fill="none" stroke="green" stroke-width="0.56" d="M150.8,-263.32C141.27,-249.88 122.89,-223.95 109.03,-204.39"/>
<polygon fill="green" stroke="green" stroke-width="0.56" points="111.97,-202.48 103.33,-196.35 106.26,-206.53 111.97,-202.48"/>
</g>
<!-- &#45;4 &#45; Right food sensor -->
<g id="node4" class="node">
<title>&#45;4 &#45; Right food sensor</title>
<polygon fill="lightgray" stroke="black" points="540.5,-282.88 445.75,-282.88 445.75,-263.63 540.5,-263.63 540.5,-282.88"/>
<text text-anchor="middle" x="493.12" y="-270.33" font-family="Times New Roman,serif" font-size="9.00">&#45;4 &#45; Right food sensor</text>
</g>
<!-- &#45;4 &#45; Right food sensor&#45;&gt;0 &#45; left_speed -->
<g id="edge7" class="edge">
<title>&#45;4 &#45; Right food sensor&#45;&gt;0 &#45; left_speed</title>
<path fill="none" stroke="red" stroke-width="0.18" d="M512.65,-263.21C526.18,-255.77 543.16,-243.81 551.12,-227.63 570.56,-188.15 578.42,-163.14 551.12,-128.63 515.87,-84.07 351.64,-61.43 263.46,-52.31"/>
<polygon fill="red" stroke="red" stroke-width="0.18" points="263.93,-48.84 253.62,-51.32 263.22,-55.81 263.93,-48.84"/>
</g>
<!-- 1 &#45; right_speed -->
<g id="node7" class="node">
<title>1 &#45; right_speed</title>
<ellipse fill="lightblue" stroke="black" cx="493.12" cy="-178.13" rx="49.5" ry="49.5"/>
<text text-anchor="middle" x="493.12" y="-175.2" font-family="Times New Roman,serif" font-size="9.00">1 &#45; right_speed</text>
</g>
<!-- &#45;4 &#45; Right food sensor&#45;&gt;1 &#45; right_speed -->
<g id="edge21" class="edge">
<title>&#45;4 &#45; Right food sensor&#45;&gt;1 &#45; right_speed</title>
<path fill="none" stroke="red" stroke-width="0.24" d="M493.12,-263.32C493.12,-256.97 493.12,-247.83 493.12,-237.89"/>
<polygon fill="red" stroke="red" stroke-width="0.24" points="496.63,-238.13 493.13,-228.13 489.63,-238.13 496.63,-238.13"/>
</g>
<!-- &#45;4 &#45; Right food sensor&#45;&gt;232 -->
<g id="edge6" class="edge">
<title>&#45;4 &#45; Right food sensor&#45;&gt;232</title>
<path fill="none" stroke="red" stroke-width="0.35" d="M445.71,-263.45C391.67,-253.1 309.19,-236.25 297.12,-227.63 289.79,-222.39 283.88,-214.75 279.31,-207.07"/>
<polygon fill="red" stroke="red" stroke-width="0.35" points="282.44,-205.49 274.64,-198.32 276.26,-208.79 282.44,-205.49"/>
</g>
<!-- &#45;4 &#45; Right food sensor&#45;&gt;233 -->
<g id="edge18" class="edge">
<title>&#45;4 &#45; Right food sensor&#45;&gt;233</title>
<path fill="none" stroke="green" stroke-width="0.52" d="M445.49,-265.06C417.45,-258.89 382.6,-247.69 357.12,-227.63 350.23,-222.2 344.52,-214.72 339.99,-207.26"/>
<polygon fill="green" stroke="green" stroke-width="0.52" points="343.15,-205.74 335.27,-198.66 337.01,-209.11 343.15,-205.74"/>
</g>
<!-- &#45;4 &#45; Right food sensor&#45;&gt;234 -->
<g id="edge13" class="edge">
<title>&#45;4 &#45; Right food sensor&#45;&gt;234</title>
<path fill="none" stroke="green" stroke-width="0.17" stroke-dasharray="1,5" d="M445.38,-264.43C372.5,-252.43 241.43,-230.54 237.12,-227.63 229.58,-222.52 223.58,-214.82 219,-207.05"/>
<polygon fill="green" stroke="green" stroke-width="0.17" points="222.13,-205.49 214.37,-198.28 215.94,-208.76 222.13,-205.49"/>
</g>
<!-- &#45;4 &#45; Right food sensor&#45;&gt;235 -->
<g id="edge17" class="edge">
<title>&#45;4 &#45; Right food sensor&#45;&gt;235</title>
<path fill="none" stroke="red" stroke-width="0.46" d="M480.29,-263.15C468.27,-254.44 449.98,-240.74 435.12,-227.63 425.97,-219.55 416.41,-210.11 408.25,-201.72"/>
<polygon fill="red" stroke="red" stroke-width="0.46" points="410.85,-199.37 401.4,-194.58 405.8,-204.22 410.85,-199.37"/>
</g>
<!-- &#45;5 &#45; Left food sensor -->
<g id="node5" class="node">
<title>&#45;5 &#45; Left food sensor</title>
<polygon fill="lightgray" stroke="black" points="90.25,-282.88 0,-282.88 0,-263.63 90.25,-263.63 90.25,-282.88"/>
<text text-anchor="middle" x="45.12" y="-270.33" font-family="Times New Roman,serif" font-size="9.00">&#45;5 &#45; Left food sensor</text>
</g>
<!-- &#45;5 &#45; Left food sensor&#45;&gt;0 &#45; left_speed -->
<g id="edge3" class="edge">
<title>&#45;5 &#45; Left food sensor&#45;&gt;0 &#45; left_speed</title>
<path fill="none" stroke="red" stroke-width="0.27" d="M43.5,-263.23C39.66,-239.09 32.37,-171.88 61.12,-128.63 82.38,-96.66 120.67,-76.02 152.7,-63.53"/>
<polygon fill="red" stroke="red" stroke-width="0.27" points="153.88,-66.83 162.03,-60.06 151.43,-60.27 153.88,-66.83"/>
</g>
<!-- &#45;5 &#45; Left food sensor&#45;&gt;232 -->
<g id="edge14" class="edge">
<title>&#45;5 &#45; Left food sensor&#45;&gt;232</title>
<path fill="none" stroke="red" stroke-width="0.12" d="M90.64,-263.58C143.57,-253.2 225.24,-236.16 237.12,-227.63 244.52,-222.31 250.48,-214.56 255.07,-206.8"/>
<polygon fill="red" stroke="red" stroke-width="0.12" points="258.15,-208.47 259.76,-198 251.97,-205.18 258.15,-208.47"/>
</g>
<!-- &#45;5 &#45; Left food sensor&#45;&gt;234 -->
<g id="edge26" class="edge">
<title>&#45;5 &#45; Left food sensor&#45;&gt;234</title>
<path fill="none" stroke="red" stroke-width="0.24" d="M66.96,-263.19C86.37,-254.84 115.3,-241.63 139.12,-227.63 154.16,-218.79 170.07,-207.55 182.72,-198.12"/>
<polygon fill="red" stroke="red" stroke-width="0.24" points="184.75,-200.97 190.62,-192.15 180.53,-195.39 184.75,-200.97"/>
</g>
<!-- &#45;5 &#45; Left food sensor&#45;&gt;236 -->
<g id="edge25" class="edge">
<title>&#45;5 &#45; Left food sensor&#45;&gt;236</title>
<path fill="none" stroke="red" stroke-width="0.28" d="M49.54,-263.32C55.92,-250.39 68.02,-225.9 77.53,-206.65"/>
<polygon fill="red" stroke="red" stroke-width="0.28" points="80.61,-208.32 81.9,-197.81 74.33,-205.22 80.61,-208.32"/>
</g>
<!-- 0 &#45; left_speed&#45;&gt;0 &#45; left_speed -->
<g id="edge15" class="edge">
<title>0 &#45; left_speed&#45;&gt;0 &#45; left_speed</title>
<path fill="none" stroke="red" stroke-width="0.3" d="M246.69,-71.02C260.38,-71.29 271.44,-63.05 271.44,-46.32 271.44,-34.03 265.48,-26.32 256.89,-23.2"/>
<polygon fill="red" stroke="red" stroke-width="0.3" points="257.56,-19.76 247.14,-21.68 256.48,-26.68 257.56,-19.76"/>
</g>
<!-- 233&#45;&gt;0 &#45; left_speed -->
<g id="edge12" class="edge">
<title>233&#45;&gt;0 &#45; left_speed</title>
<path fill="none" stroke="green" stroke-width="0.23" d="M317.69,-159.26C312.27,-149.73 304.99,-138.06 297.12,-128.63 283.33,-112.09 266.2,-95.79 250.59,-82.18"/>
<polygon fill="green" stroke="green" stroke-width="0.23" points="253.21,-79.81 243.34,-75.95 248.65,-85.12 253.21,-79.81"/>
</g>
<!-- 234&#45;&gt;0 &#45; left_speed -->
<g id="edge20" class="edge">
<title>234&#45;&gt;0 &#45; left_speed</title>
<path fill="none" stroke="red" stroke-width="0.23" d="M207.12,-156.85C207.12,-142.4 207.12,-122.24 207.12,-103.14"/>
<polygon fill="red" stroke="red" stroke-width="0.23" points="210.63,-103.34 207.13,-93.34 203.63,-103.34 210.63,-103.34"/>
</g>
<!-- 235&#45;&gt;0 &#45; left_speed -->
<g id="edge23" class="edge">
<title>235&#45;&gt;0 &#45; left_speed</title>
<path fill="none" stroke="red" stroke-width="0.29" d="M378.79,-158.94C373.6,-149.08 366.19,-137.2 357.12,-128.63 329.02,-102.09 290.59,-81.48 259.66,-67.65"/>
<polygon fill="red" stroke="red" stroke-width="0.29" points="261.29,-64.54 250.72,-63.75 258.49,-70.95 261.29,-64.54"/>
</g>
<!-- 235&#45;&gt;235 -->
<g id="edge5" class="edge">
<title>235&#45;&gt;235</title>
<path fill="none" stroke="green" stroke-width="0.2" d="M401.88,-193.46C413.74,-199.59 425.98,-194.48 425.98,-178.13 425.98,-166.38 419.66,-160.43 411.7,-160.3"/>
<polygon fill="green" stroke="green" stroke-width="0.2" points="411,-156.86 402.17,-162.73 412.73,-163.64 411,-156.86"/>
</g>
<!-- 236&#45;&gt;0 &#45; left_speed -->
<g id="edge8" class="edge">
<title>236&#45;&gt;0 &#45; left_speed</title>
<path fill="none" stroke="green" stroke-width="0.19" d="M104.66,-161.98C120.53,-144.22 147.5,-114.04 169.78,-89.1"/>
<polygon fill="green" stroke="green" stroke-width="0.19" points="172.29,-91.55 176.34,-81.76 167.07,-86.89 172.29,-91.55"/>
</g>
<!-- 236&#45;&gt;236 -->
<g id="edge10" class="edge">
<title>236&#45;&gt;236</title>
<path fill="none" stroke="green" stroke-width="0.34" d="M105.88,-193.46C117.74,-199.59 129.98,-194.48 129.98,-178.13 129.98,-166.51 123.8,-160.56 115.96,-160.3"/>
<polygon fill="green" stroke="green" stroke-width="0.34" points="115.24,-156.87 106.38,-162.68 116.93,-163.67 115.24,-156.87"/>
</g>
</g>
</svg>
