<?xml version="1.0" encoding="UTF-8" standalone="no"?>
<!DOCTYPE svg PUBLIC "-//W3C//DTD SVG 1.1//EN"
 "http://www.w3.org/Graphics/SVG/1.1/DTD/svg11.dtd">
<!-- Generated by graphviz version 9.0.0 (20230911.1827)
 -->
<!-- Pages: 1 -->
<svg width="602pt" height="291pt"
 viewBox="0.00 0.00 601.62 290.88" xmlns="http://www.w3.org/2000/svg" xmlns:xlink="http://www.w3.org/1999/xlink">
<g id="graph0" class="graph" transform="scale(1 1) rotate(0) translate(4 286.88)">
<polygon fill="white" stroke="none" points="-4,4 -4,-286.88 597.62,-286.88 597.62,4 -4,4"/>
<!-- &#45;1 &#45; Energy sensor -->
<g id="node1" class="node">
<title>&#45;1 &#45; Energy sensor</title>
<polygon fill="lightgray" stroke="black" points="428.12,-282.88 346.12,-282.88 346.12,-263.63 428.12,-263.63 428.12,-282.88"/>
<text text-anchor="middle" x="387.12" y="-270.33" font-family="Times New Roman,serif" font-size="9.00">&#45;1 &#45; Energy sensor</text>
</g>
<!-- 232 -->
<g id="node8" class="node">
<title>232</title>
<ellipse fill="white" stroke="black" cx="280.12" cy="-178.13" rx="20.86" ry="20.86"/>
<text text-anchor="middle" x="280.12" y="-175.2" font-family="Times New Roman,serif" font-size="9.00">232</text>
</g>
<!-- &#45;1 &#45; Energy sensor&#45;&gt;232 -->
<g id="edge4" class="edge">
<title>&#45;1 &#45; Energy sensor&#45;&gt;232</title>
<path fill="none" stroke="red" stroke-width="0.38" d="M365.31,-263.16C348.76,-255.48 326.19,-243.24 310.12,-227.63 303.83,-221.51 298.3,-213.82 293.76,-206.38"/>
<polygon fill="red" stroke="red" stroke-width="0.38" points="296.83,-204.69 288.84,-197.73 290.74,-208.15 296.83,-204.69"/>
</g>
<!-- 233 -->
<g id="node9" class="node">
<title>233</title>
<ellipse fill="white" stroke="black" cx="340.12" cy="-178.13" rx="20.86" ry="20.86"/>
<text text-anchor="middle" x="340.12" y="-175.2" font-family="Times New Roman,serif" font-size="9.00">233</text>
</g>
<!-- &#45;1 &#45; Energy sensor&#45;&gt;233 -->
<g id="edge11" class="edge">
<title>&#45;1 &#45; Energy sensor&#45;&gt;233</title>
<path fill="none" stroke="green" stroke-width="0.27" d="M382.62,-263.32C376.05,-250.31 363.58,-225.6 353.84,-206.3"/>
<polygon fill="green" stroke="green" stroke-width="0.27" points="357,-204.79 349.37,-197.44 350.75,-207.94 357,-204.79"/>
</g>
<!-- 235 -->
<g id="node11" class="node">
<title>235</title>
<ellipse fill="white" stroke="black" cx="400.12" cy="-178.13" rx="20.86" ry="20.86"/>
<text text-anchor="middle" x="400.12" y="-175.2" font-family="Times New Roman,serif" font-size="9.00">235</text>
</g>
<!-- &#45;1 &#45; Energy sensor&#45;&gt;235 -->
<g id="edge21" class="edge">
<title>&#45;1 &#45; Energy sensor&#45;&gt;235</title>
<path fill="none" stroke="red" stroke-width="0.32" d="M388.37,-263.32C390.09,-251.01 393.27,-228.22 395.89,-209.45"/>
<polygon fill="red" stroke="red" stroke-width="0.32" points="399.33,-210.11 397.25,-199.72 392.4,-209.14 399.33,-210.11"/>
</g>
<!-- &#45;2 &#45; Right poison sensor -->
<g id="node2" class="node">
<title>&#45;2 &#45; Right poison sensor</title>
<polygon fill="lightgray" stroke="black" points="327.62,-282.88 224.62,-282.88 224.62,-263.63 327.62,-263.63 327.62,-282.88"/>
<text text-anchor="middle" x="276.12" y="-270.33" font-family="Times New Roman,serif" font-size="9.00">&#45;2 &#45; Right poison sensor</text>
</g>
<!-- &#45;2 &#45; Right poison sensor&#45;&gt;233 -->
<g id="edge9" class="edge">
<title>&#45;2 &#45; Right poison sensor&#45;&gt;233</title>
<path fill="none" stroke="green" stroke-width="0.35" d="M283.42,-263.21C290.5,-254.33 301.4,-240.31 310.12,-227.63 315.02,-220.51 320.06,-212.62 324.58,-205.3"/>
<polygon fill="green" stroke="green" stroke-width="0.35" points="327.48,-207.26 329.69,-196.9 321.5,-203.62 327.48,-207.26"/>
</g>
<!-- 236 -->
<g id="node12" class="node">
<title>236</title>
<ellipse fill="white" stroke="black" cx="202.12" cy="-178.13" rx="20.86" ry="20.86"/>
<text text-anchor="middle" x="202.12" y="-175.2" font-family="Times New Roman,serif" font-size="9.00">236</text>
</g>
<!-- &#45;2 &#45; Right poison sensor&#45;&gt;236 -->
<g id="edge23" class="edge">
<title>&#45;2 &#45; Right poison sensor&#45;&gt;236</title>
<path fill="none" stroke="red" stroke-width="0.18" d="M269.03,-263.32C258.08,-249.54 236.68,-222.62 221.03,-202.92"/>
<polygon fill="red" stroke="red" stroke-width="0.18" points="223.85,-200.84 214.89,-195.19 218.37,-205.2 223.85,-200.84"/>
</g>
<!-- &#45;3 &#45; Left poison sensor -->
<g id="node3" class="node">
<title>&#45;3 &#45; Left poison sensor</title>
<polygon fill="lightgray" stroke="black" points="206.38,-282.88 107.88,-282.88 107.88,-263.63 206.38,-263.63 206.38,-282.88"/>
<text text-anchor="middle" x="157.12" y="-270.33" font-family="Times New Roman,serif" font-size="9.00">&#45;3 &#45; Left poison sensor</text>
</g>
<!-- 0 &#45; left_speed -->
<g id="node6" class="node">
<title>0 &#45; left_speed</title>
<ellipse fill="lightblue" stroke="black" cx="202.12" cy="-46.32" rx="46.32" ry="46.32"/>
<text text-anchor="middle" x="202.12" y="-43.39" font-family="Times New Roman,serif" font-size="9.00">0 &#45; left_speed</text>
</g>
<!-- &#45;3 &#45; Left poison sensor&#45;&gt;0 &#45; left_speed -->
<g id="edge1" class="edge">
<title>&#45;3 &#45; Left poison sensor&#45;&gt;0 &#45; left_speed</title>
<path fill="none" stroke="green" stroke-width="0.33" d="M157.29,-263.38C157.86,-240.67 160.47,-178.68 172.12,-128.63 174.38,-118.95 177.47,-108.85 180.81,-99.2"/>
<polygon fill="green" stroke="green" stroke-width="0.33" points="184.1,-100.4 184.19,-89.8 177.51,-98.03 184.1,-100.4"/>
</g>
<!-- &#45;3 &#45; Left poison sensor&#45;&gt;232 -->
<g id="edge18" class="edge">
<title>&#45;3 &#45; Left poison sensor&#45;&gt;232</title>
<path fill="none" stroke="red" stroke-width="0.21" d="M186.04,-263.23C205.78,-255.99 231.61,-244.27 250.12,-227.63 256.79,-221.63 262.5,-213.81 267.09,-206.2"/>
<polygon fill="red" stroke="red" stroke-width="0.21" points="269.97,-208.21 271.79,-197.78 263.86,-204.8 269.97,-208.21"/>
</g>
<!-- 234 -->
<g id="node10" class="node">
<title>234</title>
<ellipse fill="white" stroke="black" cx="104.12" cy="-178.13" rx="20.86" ry="20.86"/>
<text text-anchor="middle" x="104.12" y="-175.2" font-family="Times New Roman,serif" font-size="9.00">234</text>
</g>
<!-- &#45;3 &#45; Left poison sensor&#45;&gt;234 -->
<g id="edge2" class="edge">
<title>&#45;3 &#45; Left poison sensor&#45;&gt;234</title>
<path fill="none" stroke="green" stroke-width="0.14" d="M152.04,-263.32C144.53,-250.12 130.15,-224.85 119.09,-205.43"/>
<polygon fill="green" stroke="green" stroke-width="0.14" points="122.23,-203.86 114.24,-196.9 116.14,-207.32 122.23,-203.86"/>
</g>
<!-- &#45;3 &#45; Left poison sensor&#45;&gt;236 -->
<g id="edge15" class="edge">
<title>&#45;3 &#45; Left poison sensor&#45;&gt;236</title>
<path fill="none" stroke="green" stroke-width="0.56" d="M161.44,-263.32C167.63,-250.51 179.31,-226.35 188.57,-207.18"/>
<polygon fill="green" stroke="green" stroke-width="0.56" points="191.72,-208.71 192.92,-198.18 185.41,-205.66 191.72,-208.71"/>
</g>
<!-- &#45;4 &#45; Right food sensor -->
<g id="node4" class="node">
<title>&#45;4 &#45; Right food sensor</title>
<polygon fill="lightgray" stroke="black" points="540.5,-282.88 445.75,-282.88 445.75,-263.63 540.5,-263.63 540.5,-282.88"/>
<text text-anchor="middle" x="493.12" y="-270.33" font-family="Times New Roman,serif" font-size="9.00">&#45;4 &#45; Right food sensor</text>
</g>
<!-- &#45;4 &#45; Right food sensor&#45;&gt;0 &#45; left_speed -->
<g id="edge7" class="edge">
<title>&#45;4 &#45; Right food sensor&#45;&gt;0 &#45; left_speed</title>
<path fill="none" stroke="red" stroke-width="0.18" d="M491.4,-263.13C485.84,-234.72 467.65,-148.46 448.12,-128.63 397.62,-77.33 314.12,-58.39 258.62,-51.4"/>
<polygon fill="red" stroke="red" stroke-width="0.18" points="259.2,-47.95 248.86,-50.26 258.39,-54.9 259.2,-47.95"/>
</g>
<!-- 1 &#45; right_speed -->
<g id="node7" class="node">
<title>1 &#45; right_speed</title>
<ellipse fill="lightblue" stroke="black" cx="544.12" cy="-178.13" rx="49.5" ry="49.5"/>
<text text-anchor="middle" x="544.12" y="-175.2" font-family="Times New Roman,serif" font-size="9.00">1 &#45; right_speed</text>
</g>
<!-- &#45;4 &#45; Right food sensor&#45;&gt;1 &#45; right_speed -->
<g id="edge20" class="edge">
<title>&#45;4 &#45; Right food sensor&#45;&gt;1 &#45; right_speed</title>
<path fill="none" stroke="red" stroke-width="0.24" d="M498.02,-263.32C502.31,-255.48 508.93,-243.39 515.83,-230.79"/>
<polygon fill="red" stroke="red" stroke-width="0.24" points="518.72,-232.8 520.45,-222.35 512.58,-229.44 518.72,-232.8"/>
</g>
<!-- &#45;4 &#45; Right food sensor&#45;&gt;232 -->
<g id="edge6" class="edge">
<title>&#45;4 &#45; Right food sensor&#45;&gt;232</title>
<path fill="none" stroke="red" stroke-width="0.35" d="M445.46,-264.84C398.73,-256.84 331.49,-243.14 310.12,-227.63 302.83,-222.33 296.94,-214.67 292.36,-207"/>
<polygon fill="red" stroke="red" stroke-width="0.35" points="295.49,-205.42 287.68,-198.26 289.32,-208.73 295.49,-205.42"/>
</g>
<!-- &#45;4 &#45; Right food sensor&#45;&gt;233 -->
<g id="edge17" class="edge">
<title>&#45;4 &#45; Right food sensor&#45;&gt;233</title>
<path fill="none" stroke="green" stroke-width="0.52" d="M446.48,-263.14C421.76,-256.5 392.07,-245.46 370.12,-227.63 363.32,-222.09 357.63,-214.58 353.1,-207.12"/>
<polygon fill="green" stroke="green" stroke-width="0.52" points="356.26,-205.61 348.36,-198.54 350.13,-208.99 356.26,-205.61"/>
</g>
<!-- &#45;4 &#45; Right food sensor&#45;&gt;235 -->
<g id="edge16" class="edge">
<title>&#45;4 &#45; Right food sensor&#45;&gt;235</title>
<path fill="none" stroke="red" stroke-width="0.46" d="M484.21,-263.32C470,-249.1 441.81,-220.87 422,-201.03"/>
<polygon fill="red" stroke="red" stroke-width="0.46" points="424.64,-198.72 415.1,-194.12 419.69,-203.67 424.64,-198.72"/>
</g>
<!-- &#45;5 &#45; Left food sensor -->
<g id="node5" class="node">
<title>&#45;5 &#45; Left food sensor</title>
<polygon fill="lightgray" stroke="black" points="90.25,-282.88 0,-282.88 0,-263.63 90.25,-263.63 90.25,-282.88"/>
<text text-anchor="middle" x="45.12" y="-270.33" font-family="Times New Roman,serif" font-size="9.00">&#45;5 &#45; Left food sensor</text>
</g>
<!-- &#45;5 &#45; Left food sensor&#45;&gt;0 &#45; left_speed -->
<g id="edge3" class="edge">
<title>&#45;5 &#45; Left food sensor&#45;&gt;0 &#45; left_speed</title>
<path fill="none" stroke="red" stroke-width="0.27" d="M44.63,-263.25C43.75,-239.15 44.31,-172.03 74.12,-128.63 92.6,-101.75 123.17,-81.84 149.8,-68.45"/>
<polygon fill="red" stroke="red" stroke-width="0.27" points="151.18,-71.67 158.66,-64.17 148.14,-65.37 151.18,-71.67"/>
</g>
<!-- &#45;5 &#45; Left food sensor&#45;&gt;232 -->
<g id="edge13" class="edge">
<title>&#45;5 &#45; Left food sensor&#45;&gt;232</title>
<path fill="none" stroke="red" stroke-width="0.12" d="M90.28,-264.35C146.61,-254.2 237.15,-236.8 250.12,-227.63 257.56,-222.37 263.53,-214.62 268.12,-206.86"/>
<polygon fill="red" stroke="red" stroke-width="0.12" points="271.2,-208.53 272.8,-198.05 265.02,-205.24 271.2,-208.53"/>
</g>
<!-- &#45;5 &#45; Left food sensor&#45;&gt;234 -->
<g id="edge25" class="edge">
<title>&#45;5 &#45; Left food sensor&#45;&gt;234</title>
<path fill="none" stroke="red" stroke-width="0.24" d="M50.78,-263.32C59.2,-250.04 75.35,-224.55 87.68,-205.08"/>
<polygon fill="red" stroke="red" stroke-width="0.24" points="90.62,-206.99 93.01,-196.66 84.71,-203.24 90.62,-206.99"/>
</g>
<!-- &#45;5 &#45; Left food sensor&#45;&gt;236 -->
<g id="edge24" class="edge">
<title>&#45;5 &#45; Left food sensor&#45;&gt;236</title>
<path fill="none" stroke="red" stroke-width="0.28" d="M65.39,-263.18C83.75,-254.72 111.32,-241.36 134.12,-227.63 149.06,-218.63 164.97,-207.38 177.64,-197.99"/>
<polygon fill="red" stroke="red" stroke-width="0.28" points="179.61,-200.89 185.51,-192.08 175.41,-195.29 179.61,-200.89"/>
</g>
<!-- 0 &#45; left_speed&#45;&gt;0 &#45; left_speed -->
<g id="edge14" class="edge">
<title>0 &#45; left_speed&#45;&gt;0 &#45; left_speed</title>
<path fill="none" stroke="red" stroke-width="0.3" d="M241.69,-71.02C255.38,-71.29 266.44,-63.05 266.44,-46.32 266.44,-34.03 260.48,-26.32 251.89,-23.2"/>
<polygon fill="red" stroke="red" stroke-width="0.3" points="252.56,-19.76 242.14,-21.68 251.48,-26.68 252.56,-19.76"/>
</g>
<!-- 233&#45;&gt;0 &#45; left_speed -->
<g id="edge12" class="edge">
<title>233&#45;&gt;0 &#45; left_speed</title>
<path fill="none" stroke="green" stroke-width="0.23" d="M331.02,-158.98C325.7,-149.36 318.4,-137.7 310.12,-128.63 292.54,-109.37 269.88,-91.5 249.85,-77.46"/>
<polygon fill="green" stroke="green" stroke-width="0.23" points="251.97,-74.66 241.74,-71.88 248,-80.43 251.97,-74.66"/>
</g>
<!-- 234&#45;&gt;0 &#45; left_speed -->
<g id="edge19" class="edge">
<title>234&#45;&gt;0 &#45; left_speed</title>
<path fill="none" stroke="red" stroke-width="0.23" d="M115.97,-160.42C122.69,-151.02 131.29,-139.11 139.12,-128.63 148.25,-116.43 158.29,-103.33 167.62,-91.29"/>
<polygon fill="red" stroke="red" stroke-width="0.23" points="170.36,-93.46 173.73,-83.42 164.83,-89.17 170.36,-93.46"/>
</g>
<!-- 235&#45;&gt;0 &#45; left_speed -->
<g id="edge22" class="edge">
<title>235&#45;&gt;0 &#45; left_speed</title>
<path fill="none" stroke="red" stroke-width="0.29" d="M391.94,-158.77C386.8,-148.86 379.39,-136.99 370.12,-128.63 337.24,-98.98 291.59,-77.81 256.18,-64.52"/>
<polygon fill="red" stroke="red" stroke-width="0.29" points="257.48,-61.27 246.89,-61.13 255.08,-67.85 257.48,-61.27"/>
</g>
<!-- 235&#45;&gt;235 -->
<g id="edge5" class="edge">
<title>235&#45;&gt;235</title>
<path fill="none" stroke="green" stroke-width="0.2" d="M414.88,-193.46C426.74,-199.59 438.98,-194.48 438.98,-178.13 438.98,-166.38 432.66,-160.43 424.7,-160.3"/>
<polygon fill="green" stroke="green" stroke-width="0.2" points="424,-156.86 415.17,-162.73 425.73,-163.64 424,-156.86"/>
</g>
<!-- 236&#45;&gt;0 &#45; left_speed -->
<g id="edge8" class="edge">
<title>236&#45;&gt;0 &#45; left_speed</title>
<path fill="none" stroke="green" stroke-width="0.19" d="M202.12,-156.85C202.12,-142.4 202.12,-122.24 202.12,-103.14"/>
<polygon fill="green" stroke="green" stroke-width="0.19" points="205.63,-103.28 202.13,-93.28 198.63,-103.28 205.63,-103.28"/>
</g>
<!-- 236&#45;&gt;236 -->
<g id="edge10" class="edge">
<title>236&#45;&gt;236</title>
<path fill="none" stroke="green" stroke-width="0.34" d="M216.88,-193.46C228.74,-199.59 240.98,-194.48 240.98,-178.13 240.98,-166.51 234.8,-160.56 226.96,-160.3"/>
<polygon fill="green" stroke="green" stroke-width="0.34" points="226.24,-156.87 217.38,-162.68 227.93,-163.67 226.24,-156.87"/>
</g>
</g>
</svg>
