<?xml version="1.0" encoding="UTF-8" standalone="no"?>
<!DOCTYPE svg PUBLIC "-//W3C//DTD SVG 1.1//EN"
 "http://www.w3.org/Graphics/SVG/1.1/DTD/svg11.dtd">
<!-- Generated by graphviz version 9.0.0 (20230911.1827)
 -->
<!-- Pages: 1 -->
<svg width="606pt" height="291pt"
 viewBox="0.00 0.00 605.75 290.88" xmlns="http://www.w3.org/2000/svg" xmlns:xlink="http://www.w3.org/1999/xlink">
<g id="graph0" class="graph" transform="scale(1 1) rotate(0) translate(4 286.88)">
<polygon fill="white" stroke="none" points="-4,4 -4,-286.88 601.75,-286.88 601.75,4 -4,4"/>
<!-- &#45;1 &#45; Energy sensor -->
<g id="node1" class="node">
<title>&#45;1 &#45; Energy sensor</title>
<polygon fill="lightgray" stroke="black" points="428.25,-282.88 346.25,-282.88 346.25,-263.63 428.25,-263.63 428.25,-282.88"/>
<text text-anchor="middle" x="387.25" y="-270.33" font-family="Times New Roman,serif" font-size="9.00">&#45;1 &#45; Energy sensor</text>
</g>
<!-- 233 -->
<g id="node8" class="node">
<title>233</title>
<ellipse fill="white" stroke="black" cx="344.25" cy="-178.13" rx="20.86" ry="20.86"/>
<text text-anchor="middle" x="344.25" y="-175.2" font-family="Times New Roman,serif" font-size="9.00">233</text>
</g>
<!-- &#45;1 &#45; Energy sensor&#45;&gt;233 -->
<g id="edge11" class="edge">
<title>&#45;1 &#45; Energy sensor&#45;&gt;233</title>
<path fill="none" stroke="green" stroke-width="0.27" d="M383.13,-263.32C377.16,-250.39 365.85,-225.9 356.96,-206.65"/>
<polygon fill="green" stroke="green" stroke-width="0.27" points="360.24,-205.41 352.87,-197.8 353.89,-208.35 360.24,-205.41"/>
</g>
<!-- 235 -->
<g id="node10" class="node">
<title>235</title>
<ellipse fill="white" stroke="black" cx="404.25" cy="-178.13" rx="20.86" ry="20.86"/>
<text text-anchor="middle" x="404.25" y="-175.2" font-family="Times New Roman,serif" font-size="9.00">235</text>
</g>
<!-- &#45;1 &#45; Energy sensor&#45;&gt;235 -->
<g id="edge21" class="edge">
<title>&#45;1 &#45; Energy sensor&#45;&gt;235</title>
<path fill="none" stroke="red" stroke-width="0.32" d="M388.88,-263.32C391.14,-250.93 395.34,-227.93 398.78,-209.1"/>
<polygon fill="red" stroke="red" stroke-width="0.32" points="402.21,-209.82 400.56,-199.35 395.32,-208.56 402.21,-209.82"/>
</g>
<!-- 232 -->
<g id="node12" class="node">
<title>232</title>
<ellipse fill="none" stroke="black" cx="284.25" cy="-178.13" rx="20.86" ry="20.86"/>
<text text-anchor="middle" x="284.25" y="-175.2" font-family="Times New Roman,serif" font-size="9.00">232</text>
</g>
<!-- &#45;1 &#45; Energy sensor&#45;&gt;232 -->
<g id="edge4" class="edge">
<title>&#45;1 &#45; Energy sensor&#45;&gt;232</title>
<path fill="none" stroke="red" stroke-width="0.38" d="M367.24,-263.25C351.5,-255.45 329.73,-243.03 314.25,-227.63 308.13,-221.54 302.7,-213.97 298.2,-206.64"/>
<polygon fill="red" stroke="red" stroke-width="0.38" points="301.32,-205.04 293.3,-198.11 295.25,-208.53 301.32,-205.04"/>
</g>
<!-- &#45;2 &#45; Right poison sensor -->
<g id="node2" class="node">
<title>&#45;2 &#45; Right poison sensor</title>
<polygon fill="lightgray" stroke="black" points="327.75,-282.88 224.75,-282.88 224.75,-263.63 327.75,-263.63 327.75,-282.88"/>
<text text-anchor="middle" x="276.25" y="-270.33" font-family="Times New Roman,serif" font-size="9.00">&#45;2 &#45; Right poison sensor</text>
</g>
<!-- &#45;2 &#45; Right poison sensor&#45;&gt;233 -->
<g id="edge9" class="edge">
<title>&#45;2 &#45; Right poison sensor&#45;&gt;233</title>
<path fill="none" stroke="green" stroke-width="0.35" d="M284.53,-263.35C292.53,-254.57 304.78,-240.62 314.25,-227.63 319.33,-220.65 324.43,-212.8 328.95,-205.48"/>
<polygon fill="green" stroke="green" stroke-width="0.35" points="331.86,-207.43 334.04,-197.06 325.87,-203.81 331.86,-207.43"/>
</g>
<!-- 236 -->
<g id="node11" class="node">
<title>236</title>
<ellipse fill="white" stroke="black" cx="206.25" cy="-178.13" rx="20.86" ry="20.86"/>
<text text-anchor="middle" x="206.25" y="-175.2" font-family="Times New Roman,serif" font-size="9.00">236</text>
</g>
<!-- &#45;2 &#45; Right poison sensor&#45;&gt;236 -->
<g id="edge23" class="edge">
<title>&#45;2 &#45; Right poison sensor&#45;&gt;236</title>
<path fill="none" stroke="red" stroke-width="0.18" d="M269.54,-263.32C259.28,-249.68 239.35,-223.17 224.59,-203.52"/>
<polygon fill="red" stroke="red" stroke-width="0.18" points="227.39,-201.43 218.58,-195.54 221.8,-205.63 227.39,-201.43"/>
</g>
<!-- &#45;3 &#45; Left poison sensor -->
<g id="node3" class="node">
<title>&#45;3 &#45; Left poison sensor</title>
<polygon fill="lightgray" stroke="black" points="98.5,-282.88 0,-282.88 0,-263.63 98.5,-263.63 98.5,-282.88"/>
<text text-anchor="middle" x="49.25" y="-270.33" font-family="Times New Roman,serif" font-size="9.00">&#45;3 &#45; Left poison sensor</text>
</g>
<!-- 0 &#45; left_speed -->
<g id="node6" class="node">
<title>0 &#45; left_speed</title>
<ellipse fill="lightblue" stroke="black" cx="206.25" cy="-46.32" rx="46.32" ry="46.32"/>
<text text-anchor="middle" x="206.25" y="-43.39" font-family="Times New Roman,serif" font-size="9.00">0 &#45; left_speed</text>
</g>
<!-- &#45;3 &#45; Left poison sensor&#45;&gt;0 &#45; left_speed -->
<g id="edge1" class="edge">
<title>&#45;3 &#45; Left poison sensor&#45;&gt;0 &#45; left_speed</title>
<path fill="none" stroke="green" stroke-width="0.33" d="M48.75,-263.25C47.87,-239.15 48.43,-172.03 78.25,-128.63 96.72,-101.75 127.29,-81.84 153.93,-68.45"/>
<polygon fill="green" stroke="green" stroke-width="0.33" points="155.23,-71.71 162.7,-64.21 152.18,-65.41 155.23,-71.71"/>
</g>
<!-- 234 -->
<g id="node9" class="node">
<title>234</title>
<ellipse fill="white" stroke="black" cx="108.25" cy="-178.13" rx="20.86" ry="20.86"/>
<text text-anchor="middle" x="108.25" y="-175.2" font-family="Times New Roman,serif" font-size="9.00">234</text>
</g>
<!-- &#45;3 &#45; Left poison sensor&#45;&gt;234 -->
<g id="edge2" class="edge">
<title>&#45;3 &#45; Left poison sensor&#45;&gt;234</title>
<path fill="none" stroke="green" stroke-width="0.14" d="M54.91,-263.32C63.36,-249.98 79.62,-224.32 91.97,-204.82"/>
<polygon fill="green" stroke="green" stroke-width="0.14" points="94.82,-206.86 97.22,-196.54 88.91,-203.12 94.82,-206.86"/>
</g>
<!-- &#45;3 &#45; Left poison sensor&#45;&gt;236 -->
<g id="edge15" class="edge">
<title>&#45;3 &#45; Left poison sensor&#45;&gt;236</title>
<path fill="none" stroke="green" stroke-width="0.56" d="M69.52,-263.18C87.87,-254.72 115.45,-241.36 138.25,-227.63 153.04,-218.72 168.79,-207.6 181.4,-198.26"/>
<polygon fill="green" stroke="green" stroke-width="0.56" points="183.4,-201.13 189.3,-192.33 179.2,-195.54 183.4,-201.13"/>
</g>
<!-- &#45;3 &#45; Left poison sensor&#45;&gt;232 -->
<g id="edge18" class="edge">
<title>&#45;3 &#45; Left poison sensor&#45;&gt;232</title>
<path fill="none" stroke="red" stroke-width="0.21" d="M98.83,-263.55C155.36,-253.31 241.61,-236.56 254.25,-227.63 261.69,-222.37 267.65,-214.62 272.24,-206.86"/>
<polygon fill="red" stroke="red" stroke-width="0.21" points="275.26,-208.65 276.86,-198.18 269.08,-205.37 275.26,-208.65"/>
</g>
<!-- &#45;4 &#45; Right food sensor -->
<g id="node4" class="node">
<title>&#45;4 &#45; Right food sensor</title>
<polygon fill="lightgray" stroke="black" points="540.62,-282.88 445.88,-282.88 445.88,-263.63 540.62,-263.63 540.62,-282.88"/>
<text text-anchor="middle" x="493.25" y="-270.33" font-family="Times New Roman,serif" font-size="9.00">&#45;4 &#45; Right food sensor</text>
</g>
<!-- &#45;4 &#45; Right food sensor&#45;&gt;0 &#45; left_speed -->
<g id="edge7" class="edge">
<title>&#45;4 &#45; Right food sensor&#45;&gt;0 &#45; left_speed</title>
<path fill="none" stroke="red" stroke-width="0.18" d="M491.79,-263.14C487.06,-234.75 471.37,-148.56 452.25,-128.63 402.26,-76.54 318.25,-57.8 262.53,-51.07"/>
<polygon fill="red" stroke="red" stroke-width="0.18" points="263.07,-47.61 252.74,-49.98 262.29,-54.57 263.07,-47.61"/>
</g>
<!-- 1 &#45; right_speed -->
<g id="node7" class="node">
<title>1 &#45; right_speed</title>
<ellipse fill="lightblue" stroke="black" cx="548.25" cy="-178.13" rx="49.5" ry="49.5"/>
<text text-anchor="middle" x="548.25" y="-175.2" font-family="Times New Roman,serif" font-size="9.00">1 &#45; right_speed</text>
</g>
<!-- &#45;4 &#45; Right food sensor&#45;&gt;1 &#45; right_speed -->
<g id="edge20" class="edge">
<title>&#45;4 &#45; Right food sensor&#45;&gt;1 &#45; right_speed</title>
<path fill="none" stroke="red" stroke-width="0.24" d="M498.52,-263.32C503.24,-255.33 510.57,-242.93 518.16,-230.07"/>
<polygon fill="red" stroke="red" stroke-width="0.24" points="521.17,-231.86 523.24,-221.47 515.15,-228.3 521.17,-231.86"/>
</g>
<!-- &#45;4 &#45; Right food sensor&#45;&gt;233 -->
<g id="edge17" class="edge">
<title>&#45;4 &#45; Right food sensor&#45;&gt;233</title>
<path fill="none" stroke="green" stroke-width="0.52" d="M449.26,-263.15C425.13,-256.45 395.82,-245.35 374.25,-227.63 367.47,-222.06 361.79,-214.54 357.26,-207.08"/>
<polygon fill="green" stroke="green" stroke-width="0.52" points="360.42,-205.56 352.52,-198.5 354.3,-208.95 360.42,-205.56"/>
</g>
<!-- &#45;4 &#45; Right food sensor&#45;&gt;235 -->
<g id="edge16" class="edge">
<title>&#45;4 &#45; Right food sensor&#45;&gt;235</title>
<path fill="none" stroke="red" stroke-width="0.46" d="M484.72,-263.32C471.26,-249.24 444.68,-221.43 425.76,-201.63"/>
<polygon fill="red" stroke="red" stroke-width="0.46" points="428.35,-199.28 418.91,-194.46 423.29,-204.11 428.35,-199.28"/>
</g>
<!-- &#45;4 &#45; Right food sensor&#45;&gt;232 -->
<g id="edge6" class="edge">
<title>&#45;4 &#45; Right food sensor&#45;&gt;232</title>
<path fill="none" stroke="red" stroke-width="0.35" d="M445.77,-264.58C400.1,-256.47 335.01,-242.78 314.25,-227.63 306.97,-222.31 301.08,-214.65 296.5,-206.98"/>
<polygon fill="red" stroke="red" stroke-width="0.35" points="299.63,-205.4 291.82,-198.24 293.46,-208.71 299.63,-205.4"/>
</g>
<!-- &#45;5 &#45; Left food sensor -->
<g id="node5" class="node">
<title>&#45;5 &#45; Left food sensor</title>
<polygon fill="lightgray" stroke="black" points="206.38,-282.88 116.12,-282.88 116.12,-263.63 206.38,-263.63 206.38,-282.88"/>
<text text-anchor="middle" x="161.25" y="-270.33" font-family="Times New Roman,serif" font-size="9.00">&#45;5 &#45; Left food sensor</text>
</g>
<!-- &#45;5 &#45; Left food sensor&#45;&gt;0 &#45; left_speed -->
<g id="edge3" class="edge">
<title>&#45;5 &#45; Left food sensor&#45;&gt;0 &#45; left_speed</title>
<path fill="none" stroke="red" stroke-width="0.27" d="M161.41,-263.38C161.99,-240.67 164.6,-178.68 176.25,-128.63 178.53,-118.85 181.66,-108.64 185.04,-98.89"/>
<polygon fill="red" stroke="red" stroke-width="0.27" points="188.25,-100.31 188.34,-89.72 181.66,-97.94 188.25,-100.31"/>
</g>
<!-- &#45;5 &#45; Left food sensor&#45;&gt;234 -->
<g id="edge25" class="edge">
<title>&#45;5 &#45; Left food sensor&#45;&gt;234</title>
<path fill="none" stroke="red" stroke-width="0.24" d="M156.17,-263.32C148.69,-250.18 134.4,-225.08 123.37,-205.69"/>
<polygon fill="red" stroke="red" stroke-width="0.24" points="126.42,-203.99 118.44,-197.03 120.34,-207.45 126.42,-203.99"/>
</g>
<!-- &#45;5 &#45; Left food sensor&#45;&gt;236 -->
<g id="edge24" class="edge">
<title>&#45;5 &#45; Left food sensor&#45;&gt;236</title>
<path fill="none" stroke="red" stroke-width="0.28" d="M165.56,-263.32C171.81,-250.39 183.65,-225.9 192.95,-206.65"/>
<polygon fill="red" stroke="red" stroke-width="0.28" points="196.02,-208.33 197.22,-197.81 189.72,-205.29 196.02,-208.33"/>
</g>
<!-- &#45;5 &#45; Left food sensor&#45;&gt;232 -->
<g id="edge13" class="edge">
<title>&#45;5 &#45; Left food sensor&#45;&gt;232</title>
<path fill="none" stroke="red" stroke-width="0.12" d="M190.17,-263.23C209.91,-255.99 235.74,-244.27 254.25,-227.63 260.92,-221.63 266.62,-213.81 271.21,-206.2"/>
<polygon fill="red" stroke="red" stroke-width="0.12" points="274.16,-208.09 275.99,-197.66 268.05,-204.68 274.16,-208.09"/>
</g>
<!-- 0 &#45; left_speed&#45;&gt;0 &#45; left_speed -->
<g id="edge14" class="edge">
<title>0 &#45; left_speed&#45;&gt;0 &#45; left_speed</title>
<path fill="none" stroke="red" stroke-width="0.3" d="M245.82,-71.02C259.51,-71.29 270.57,-63.05 270.57,-46.32 270.57,-34.03 264.6,-26.32 256.01,-23.2"/>
<polygon fill="red" stroke="red" stroke-width="0.3" points="256.69,-19.76 246.27,-21.68 255.61,-26.68 256.69,-19.76"/>
</g>
<!-- 233&#45;&gt;0 &#45; left_speed -->
<g id="edge12" class="edge">
<title>233&#45;&gt;0 &#45; left_speed</title>
<path fill="none" stroke="green" stroke-width="0.23" d="M335.15,-158.98C329.82,-149.36 322.53,-137.7 314.25,-128.63 296.67,-109.37 274,-91.5 253.98,-77.46"/>
<polygon fill="green" stroke="green" stroke-width="0.23" points="256.09,-74.66 245.87,-71.88 252.12,-80.43 256.09,-74.66"/>
</g>
<!-- 234&#45;&gt;0 &#45; left_speed -->
<g id="edge19" class="edge">
<title>234&#45;&gt;0 &#45; left_speed</title>
<path fill="none" stroke="red" stroke-width="0.23" d="M120.1,-160.42C126.81,-151.02 135.41,-139.11 143.25,-128.63 152.37,-116.43 162.41,-103.33 171.75,-91.29"/>
<polygon fill="red" stroke="red" stroke-width="0.23" points="174.49,-93.46 177.86,-83.42 168.96,-89.17 174.49,-93.46"/>
</g>
<!-- 235&#45;&gt;0 &#45; left_speed -->
<g id="edge22" class="edge">
<title>235&#45;&gt;0 &#45; left_speed</title>
<path fill="none" stroke="red" stroke-width="0.29" d="M396.07,-158.77C390.93,-148.86 383.51,-136.99 374.25,-128.63 341.37,-98.98 295.72,-77.81 260.3,-64.52"/>
<polygon fill="red" stroke="red" stroke-width="0.29" points="261.61,-61.27 251.01,-61.13 259.21,-67.85 261.61,-61.27"/>
</g>
<!-- 235&#45;&gt;235 -->
<g id="edge5" class="edge">
<title>235&#45;&gt;235</title>
<path fill="none" stroke="green" stroke-width="0.2" d="M419,-193.46C430.86,-199.59 443.11,-194.48 443.11,-178.13 443.11,-166.38 436.78,-160.43 428.82,-160.3"/>
<polygon fill="green" stroke="green" stroke-width="0.2" points="428.12,-156.86 419.3,-162.73 429.85,-163.64 428.12,-156.86"/>
</g>
<!-- 236&#45;&gt;0 &#45; left_speed -->
<g id="edge8" class="edge">
<title>236&#45;&gt;0 &#45; left_speed</title>
<path fill="none" stroke="green" stroke-width="0.19" d="M206.25,-156.85C206.25,-142.4 206.25,-122.24 206.25,-103.14"/>
<polygon fill="green" stroke="green" stroke-width="0.19" points="209.75,-103.28 206.25,-93.28 202.75,-103.28 209.75,-103.28"/>
</g>
<!-- 236&#45;&gt;236 -->
<g id="edge10" class="edge">
<title>236&#45;&gt;236</title>
<path fill="none" stroke="green" stroke-width="0.34" d="M221,-193.46C232.86,-199.59 245.11,-194.48 245.11,-178.13 245.11,-166.51 238.92,-160.56 231.08,-160.3"/>
<polygon fill="green" stroke="green" stroke-width="0.34" points="230.37,-156.87 221.5,-162.68 232.05,-163.67 230.37,-156.87"/>
</g>
</g>
</svg>
