<?xml version="1.0" encoding="UTF-8" standalone="no"?>
<!DOCTYPE svg PUBLIC "-//W3C//DTD SVG 1.1//EN"
 "http://www.w3.org/Graphics/SVG/1.1/DTD/svg11.dtd">
<!-- Generated by graphviz version 9.0.0 (20230911.1827)
 -->
<!-- Pages: 1 -->
<svg width="549pt" height="240pt"
 viewBox="0.00 0.00 548.88 239.96" xmlns="http://www.w3.org/2000/svg" xmlns:xlink="http://www.w3.org/1999/xlink">
<g id="graph0" class="graph" transform="scale(1 1) rotate(0) translate(4 235.96)">
<polygon fill="white" stroke="none" points="-4,4 -4,-235.96 544.88,-235.96 544.88,4 -4,4"/>
<!-- &#45;1 &#45; Energy sensor -->
<g id="node1" class="node">
<title>&#45;1 &#45; Energy sensor</title>
<polygon fill="lightgray" stroke="black" points="303.38,-231.96 221.38,-231.96 221.38,-212.71 303.38,-212.71 303.38,-231.96"/>
<text text-anchor="middle" x="262.38" y="-219.41" font-family="Times New Roman,serif" font-size="9.00">&#45;1 &#45; Energy sensor</text>
</g>
<!-- 0 &#45; left_speed -->
<g id="node6" class="node">
<title>0 &#45; left_speed</title>
<ellipse fill="lightblue" stroke="black" cx="235.38" cy="-49.5" rx="46.32" ry="46.32"/>
<text text-anchor="middle" x="235.38" y="-46.57" font-family="Times New Roman,serif" font-size="9.00">0 &#45; left_speed</text>
</g>
<!-- &#45;1 &#45; Energy sensor&#45;&gt;0 &#45; left_speed -->
<g id="edge22" class="edge">
<title>&#45;1 &#45; Energy sensor&#45;&gt;0 &#45; left_speed</title>
<path fill="none" stroke="green" stroke-width="0.69" d="M253.05,-212.44C245.02,-204.09 234.02,-190.81 229.38,-176.71 221.97,-154.24 221.87,-128.3 224.23,-105.81"/>
<polygon fill="green" stroke="green" stroke-width="0.69" points="227.68,-106.46 225.44,-96.1 220.73,-105.59 227.68,-106.46"/>
</g>
<!-- 277 -->
<g id="node8" class="node">
<title>277</title>
<ellipse fill="white" stroke="black" cx="259.38" cy="-155.85" rx="20.86" ry="20.86"/>
<text text-anchor="middle" x="259.38" y="-152.93" font-family="Times New Roman,serif" font-size="9.00">277</text>
</g>
<!-- &#45;1 &#45; Energy sensor&#45;&gt;277 -->
<g id="edge9" class="edge">
<title>&#45;1 &#45; Energy sensor&#45;&gt;277</title>
<path fill="none" stroke="red" stroke-width="0.27" d="M261.96,-212.37C261.65,-205.86 261.23,-196.62 260.8,-187.55"/>
<polygon fill="red" stroke="red" stroke-width="0.27" points="264.3,-187.39 260.34,-177.57 257.31,-187.72 264.3,-187.39"/>
</g>
<!-- 279 -->
<g id="node10" class="node">
<title>279</title>
<ellipse fill="white" stroke="black" cx="397.38" cy="-155.85" rx="20.86" ry="20.86"/>
<text text-anchor="middle" x="397.38" y="-152.93" font-family="Times New Roman,serif" font-size="9.00">279</text>
</g>
<!-- &#45;1 &#45; Energy sensor&#45;&gt;279 -->
<g id="edge13" class="edge">
<title>&#45;1 &#45; Energy sensor&#45;&gt;279</title>
<path fill="none" stroke="green" stroke-width="0.14" d="M287.15,-212.29C308.81,-204.03 340.86,-190.97 367.38,-176.71 368.89,-175.9 370.42,-175.03 371.96,-174.13"/>
<polygon fill="green" stroke="green" stroke-width="0.14" points="373.76,-177.13 380.39,-168.87 370.05,-171.19 373.76,-177.13"/>
</g>
<!-- 281 -->
<g id="node12" class="node">
<title>281</title>
<ellipse fill="white" stroke="black" cx="161.38" cy="-155.85" rx="20.86" ry="20.86"/>
<text text-anchor="middle" x="161.38" y="-152.93" font-family="Times New Roman,serif" font-size="9.00">281</text>
</g>
<!-- &#45;1 &#45; Energy sensor&#45;&gt;281 -->
<g id="edge17" class="edge">
<title>&#45;1 &#45; Energy sensor&#45;&gt;281</title>
<path fill="none" stroke="red" stroke-width="0.32" d="M248.33,-212.37C232.61,-202.33 206.79,-185.85 187.36,-173.45"/>
<polygon fill="red" stroke="red" stroke-width="0.32" points="189.41,-170.6 179.09,-168.17 185.64,-176.5 189.41,-170.6"/>
</g>
<!-- &#45;2 &#45; Right poison sensor -->
<g id="node2" class="node">
<title>&#45;2 &#45; Right poison sensor</title>
<polygon fill="lightgray" stroke="black" points="540.88,-231.96 437.88,-231.96 437.88,-212.71 540.88,-212.71 540.88,-231.96"/>
<text text-anchor="middle" x="489.38" y="-219.41" font-family="Times New Roman,serif" font-size="9.00">&#45;2 &#45; Right poison sensor</text>
</g>
<!-- 1 &#45; right_speed -->
<g id="node7" class="node">
<title>1 &#45; right_speed</title>
<ellipse fill="lightblue" stroke="black" cx="427.38" cy="-49.5" rx="49.5" ry="49.5"/>
<text text-anchor="middle" x="427.38" y="-46.57" font-family="Times New Roman,serif" font-size="9.00">1 &#45; right_speed</text>
</g>
<!-- &#45;2 &#45; Right poison sensor&#45;&gt;1 &#45; right_speed -->
<g id="edge25" class="edge">
<title>&#45;2 &#45; Right poison sensor&#45;&gt;1 &#45; right_speed</title>
<path fill="none" stroke="red" stroke-width="0.34" d="M490.87,-212.22C493.14,-196.14 496.3,-161.89 487.38,-134.99 482.73,-120.98 474.89,-107.27 466.39,-95.11"/>
<polygon fill="red" stroke="red" stroke-width="0.34" points="469.46,-93.37 460.74,-87.36 463.81,-97.5 469.46,-93.37"/>
</g>
<!-- &#45;2 &#45; Right poison sensor&#45;&gt;277 -->
<g id="edge15" class="edge">
<title>&#45;2 &#45; Right poison sensor&#45;&gt;277</title>
<path fill="none" stroke="red" stroke-width="0.26" d="M439.01,-212.27C388.94,-202.87 315.89,-187.99 289.38,-176.71 287.79,-176.04 286.21,-175.28 284.63,-174.47"/>
<polygon fill="red" stroke="red" stroke-width="0.26" points="286.64,-171.59 276.24,-169.54 283.09,-177.62 286.64,-171.59"/>
</g>
<!-- &#45;2 &#45; Right poison sensor&#45;&gt;279 -->
<g id="edge1" class="edge">
<title>&#45;2 &#45; Right poison sensor&#45;&gt;279</title>
<path fill="none" stroke="red" stroke-width="0.12" d="M476.58,-212.37C462.58,-202.56 439.79,-186.58 422.24,-174.28"/>
<polygon fill="red" stroke="red" stroke-width="0.12" points="424.46,-171.56 414.26,-168.69 420.44,-177.29 424.46,-171.56"/>
</g>
<!-- &#45;3 &#45; Left poison sensor -->
<g id="node3" class="node">
<title>&#45;3 &#45; Left poison sensor</title>
<polygon fill="lightgray" stroke="black" points="419.62,-231.96 321.12,-231.96 321.12,-212.71 419.62,-212.71 419.62,-231.96"/>
<text text-anchor="middle" x="370.38" y="-219.41" font-family="Times New Roman,serif" font-size="9.00">&#45;3 &#45; Left poison sensor</text>
</g>
<!-- &#45;3 &#45; Left poison sensor&#45;&gt;277 -->
<g id="edge20" class="edge">
<title>&#45;3 &#45; Left poison sensor&#45;&gt;277</title>
<path fill="none" stroke="red" stroke-width="0.39" d="M353.08,-212.33C336.52,-203.59 310.94,-189.76 289.38,-176.71 287.91,-175.83 286.41,-174.9 284.9,-173.95"/>
<polygon fill="red" stroke="red" stroke-width="0.39" points="287.15,-171.24 276.85,-168.76 283.35,-177.12 287.15,-171.24"/>
</g>
<!-- 278 -->
<g id="node9" class="node">
<title>278</title>
<ellipse fill="white" stroke="black" cx="319.38" cy="-155.85" rx="20.86" ry="20.86"/>
<text text-anchor="middle" x="319.38" y="-152.93" font-family="Times New Roman,serif" font-size="9.00">278</text>
</g>
<!-- &#45;3 &#45; Left poison sensor&#45;&gt;278 -->
<g id="edge5" class="edge">
<title>&#45;3 &#45; Left poison sensor&#45;&gt;278</title>
<path fill="none" stroke="green" stroke-width="0.42" d="M363.28,-212.37C356.87,-204.27 347.13,-191.95 338.46,-180.98"/>
<polygon fill="green" stroke="green" stroke-width="0.42" points="341.45,-179.12 332.5,-173.45 335.96,-183.46 341.45,-179.12"/>
</g>
<!-- 280 -->
<g id="node11" class="node">
<title>280</title>
<ellipse fill="white" stroke="black" cx="457.38" cy="-155.85" rx="20.86" ry="20.86"/>
<text text-anchor="middle" x="457.38" y="-152.93" font-family="Times New Roman,serif" font-size="9.00">280</text>
</g>
<!-- &#45;3 &#45; Left poison sensor&#45;&gt;280 -->
<g id="edge3" class="edge">
<title>&#45;3 &#45; Left poison sensor&#45;&gt;280</title>
<path fill="none" stroke="red" stroke-width="0.15" d="M382.47,-212.37C395.43,-202.77 416.36,-187.26 432.8,-175.07"/>
<polygon fill="red" stroke="red" stroke-width="0.15" points="434.8,-177.95 440.74,-169.18 430.63,-172.32 434.8,-177.95"/>
</g>
<!-- &#45;4 &#45; Right food sensor -->
<g id="node4" class="node">
<title>&#45;4 &#45; Right food sensor</title>
<polygon fill="lightgray" stroke="black" points="94.75,-231.96 0,-231.96 0,-212.71 94.75,-212.71 94.75,-231.96"/>
<text text-anchor="middle" x="47.38" y="-219.41" font-family="Times New Roman,serif" font-size="9.00">&#45;4 &#45; Right food sensor</text>
</g>
<!-- &#45;4 &#45; Right food sensor&#45;&gt;0 &#45; left_speed -->
<g id="edge11" class="edge">
<title>&#45;4 &#45; Right food sensor&#45;&gt;0 &#45; left_speed</title>
<path fill="none" stroke="red" stroke-width="0.12" d="M54.38,-212.23C67.17,-195.86 95.55,-160.79 123.38,-134.99 143.79,-116.06 168.31,-97.19 189.2,-82.09"/>
<polygon fill="red" stroke="red" stroke-width="0.12" points="191.07,-85.06 197.16,-76.39 186.99,-79.37 191.07,-85.06"/>
</g>
<!-- &#45;4 &#45; Right food sensor&#45;&gt;277 -->
<g id="edge16" class="edge">
<title>&#45;4 &#45; Right food sensor&#45;&gt;277</title>
<path fill="none" stroke="green" stroke-width="0.12" d="M77.3,-212.24C117.81,-199.92 189.65,-178.06 229.92,-165.81"/>
<polygon fill="green" stroke="green" stroke-width="0.12" points="230.71,-169.23 239.26,-162.97 228.67,-162.54 230.71,-169.23"/>
</g>
<!-- &#45;4 &#45; Right food sensor&#45;&gt;281 -->
<g id="edge21" class="edge">
<title>&#45;4 &#45; Right food sensor&#45;&gt;281</title>
<path fill="none" stroke="red" stroke-width="0.55" d="M63.23,-212.37C81.56,-202 112.05,-184.75 134.19,-172.23"/>
<polygon fill="red" stroke="red" stroke-width="0.55" points="135.7,-175.4 142.68,-167.43 132.25,-169.31 135.7,-175.4"/>
</g>
<!-- &#45;5 &#45; Left food sensor -->
<g id="node5" class="node">
<title>&#45;5 &#45; Left food sensor</title>
<polygon fill="lightgray" stroke="black" points="203.5,-231.96 113.25,-231.96 113.25,-212.71 203.5,-212.71 203.5,-231.96"/>
<text text-anchor="middle" x="158.38" y="-219.41" font-family="Times New Roman,serif" font-size="9.00">&#45;5 &#45; Left food sensor</text>
</g>
<!-- &#45;5 &#45; Left food sensor&#45;&gt;0 &#45; left_speed -->
<g id="edge8" class="edge">
<title>&#45;5 &#45; Left food sensor&#45;&gt;0 &#45; left_speed</title>
<path fill="none" stroke="green" stroke-width="0.14" d="M150.97,-212.46C144.37,-203.92 135.17,-190.32 131.38,-176.71 126.39,-158.85 123.41,-151.74 131.38,-134.99 142.84,-110.9 164.91,-91.44 185.78,-77.29"/>
<polygon fill="green" stroke="green" stroke-width="0.14" points="187.66,-80.24 194.13,-71.86 183.84,-74.37 187.66,-80.24"/>
</g>
<!-- &#45;5 &#45; Left food sensor&#45;&gt;277 -->
<g id="edge7" class="edge">
<title>&#45;5 &#45; Left food sensor&#45;&gt;277</title>
<path fill="none" stroke="green" stroke-width="0.18" d="M172.42,-212.37C188.21,-202.29 214.19,-185.7 233.65,-173.28"/>
<polygon fill="green" stroke="green" stroke-width="0.18" points="235.29,-176.38 241.84,-168.05 231.53,-170.48 235.29,-176.38"/>
</g>
<!-- &#45;5 &#45; Left food sensor&#45;&gt;281 -->
<g id="edge26" class="edge">
<title>&#45;5 &#45; Left food sensor&#45;&gt;281</title>
<path fill="none" stroke="red" stroke-width="0.21" d="M158.79,-212.37C159.1,-205.79 159.53,-196.42 159.96,-187.26"/>
<polygon fill="red" stroke="red" stroke-width="0.21" points="163.45,-187.63 160.42,-177.48 156.45,-187.3 163.45,-187.63"/>
</g>
<!-- 0 &#45; left_speed&#45;&gt;0 &#45; left_speed -->
<g id="edge2" class="edge">
<title>0 &#45; left_speed&#45;&gt;0 &#45; left_speed</title>
<path fill="none" stroke="red" stroke-width="0.19" d="M277.75,-69.38C290.11,-68.69 299.69,-62.07 299.69,-49.5 299.69,-40.46 294.74,-34.5 287.37,-31.6"/>
<polygon fill="red" stroke="red" stroke-width="0.19" points="288.53,-28.27 278.03,-29.67 287.12,-35.13 288.53,-28.27"/>
</g>
<!-- 277&#45;&gt;0 &#45; left_speed -->
<g id="edge12" class="edge">
<title>277&#45;&gt;0 &#45; left_speed</title>
<path fill="none" stroke="red" stroke-width="0.33" d="M254.86,-135.23C252.86,-126.55 250.41,-115.87 247.92,-105.05"/>
<polygon fill="red" stroke="red" stroke-width="0.33" points="251.41,-104.58 245.75,-95.62 244.58,-106.15 251.41,-104.58"/>
</g>
<!-- 277&#45;&gt;1 &#45; right_speed -->
<g id="edge23" class="edge">
<title>277&#45;&gt;1 &#45; right_speed</title>
<path fill="none" stroke="green" stroke-width="0.27" d="M276.44,-143.41C280.65,-140.63 285.16,-137.68 289.38,-134.99 318.01,-116.76 350.36,-96.91 376.54,-81.04"/>
<polygon fill="green" stroke="green" stroke-width="0.27" points="378.07,-84.2 384.81,-76.03 374.45,-78.21 378.07,-84.2"/>
</g>
<!-- 278&#45;&gt;0 &#45; left_speed -->
<g id="edge6" class="edge">
<title>278&#45;&gt;0 &#45; left_speed</title>
<path fill="none" stroke="red" stroke-width="0.5" d="M306.62,-139C297,-127.06 283.33,-110.07 270.53,-94.17"/>
<polygon fill="red" stroke="red" stroke-width="0.5" points="273.41,-92.17 264.41,-86.57 267.96,-96.56 273.41,-92.17"/>
</g>
<!-- 278&#45;&gt;278 -->
<g id="edge19" class="edge">
<title>278&#45;&gt;278</title>
<path fill="none" stroke="green" stroke-width="0.21" d="M336.96,-167.44C347.86,-170.23 358.23,-166.37 358.23,-155.85 358.23,-148.79 353.55,-144.73 347.17,-143.67"/>
<polygon fill="green" stroke="green" stroke-width="0.21" points="347.06,-140.17 337.28,-144.25 347.47,-147.16 347.06,-140.17"/>
</g>
<!-- 279&#45;&gt;0 &#45; left_speed -->
<g id="edge24" class="edge">
<title>279&#45;&gt;0 &#45; left_speed</title>
<path fill="none" stroke="red" stroke-width="0.2" d="M380.27,-143.47C376.06,-140.68 371.56,-137.72 367.38,-134.99 339.43,-116.8 307.99,-96.66 282.81,-80.61"/>
<polygon fill="red" stroke="red" stroke-width="0.2" points="284.75,-77.7 274.43,-75.28 280.99,-83.6 284.75,-77.7"/>
</g>
<!-- 279&#45;&gt;1 &#45; right_speed -->
<g id="edge4" class="edge">
<title>279&#45;&gt;1 &#45; right_speed</title>
<path fill="none" stroke="red" stroke-width="0.37" d="M402.88,-135.71C405.24,-127.51 408.13,-117.45 411.09,-107.16"/>
<polygon fill="red" stroke="red" stroke-width="0.37" points="414.37,-108.39 413.77,-97.81 407.65,-106.46 414.37,-108.39"/>
</g>
<!-- 280&#45;&gt;0 &#45; left_speed -->
<g id="edge18" class="edge">
<title>280&#45;&gt;0 &#45; left_speed</title>
<path fill="none" stroke="green" stroke-width="0.23" d="M440.55,-143C436.34,-140.23 431.76,-137.39 427.38,-134.99 381.65,-110.04 327.09,-86.59 287.83,-70.76"/>
<polygon fill="green" stroke="green" stroke-width="0.23" points="289.6,-67.7 279.02,-67.23 287,-74.19 289.6,-67.7"/>
</g>
<!-- 280&#45;&gt;1 &#45; right_speed -->
<g id="edge14" class="edge">
<title>280&#45;&gt;1 &#45; right_speed</title>
<path fill="none" stroke="red" stroke-width="0.2" d="M451.87,-135.71C449.51,-127.51 446.62,-117.45 443.66,-107.16"/>
<polygon fill="red" stroke="red" stroke-width="0.2" points="447.03,-106.21 440.91,-97.57 440.31,-108.15 447.03,-106.21"/>
</g>
<!-- 281&#45;&gt;0 &#45; left_speed -->
<g id="edge10" class="edge">
<title>281&#45;&gt;0 &#45; left_speed</title>
<path fill="none" stroke="green" stroke-width="0.11" d="M172.94,-138.55C181.03,-127.13 192.27,-111.28 202.99,-96.17"/>
<polygon fill="green" stroke="green" stroke-width="0.11" points="205.84,-98.2 208.77,-88.02 200.13,-94.15 205.84,-98.2"/>
</g>
</g>
</svg>
