<?xml version="1.0" encoding="UTF-8" standalone="no"?>
<!DOCTYPE svg PUBLIC "-//W3C//DTD SVG 1.1//EN"
 "http://www.w3.org/Graphics/SVG/1.1/DTD/svg11.dtd">
<!-- Generated by graphviz version 9.0.0 (20230911.1827)
 -->
<!-- Pages: 1 -->
<svg width="533pt" height="240pt"
 viewBox="0.00 0.00 532.62 239.96" xmlns="http://www.w3.org/2000/svg" xmlns:xlink="http://www.w3.org/1999/xlink">
<g id="graph0" class="graph" transform="scale(1 1) rotate(0) translate(4 235.96)">
<polygon fill="white" stroke="none" points="-4,4 -4,-235.96 528.62,-235.96 528.62,4 -4,4"/>
<!-- &#45;1 &#45; Energy sensor -->
<g id="node1" class="node">
<title>&#45;1 &#45; Energy sensor</title>
<polygon fill="lightgray" stroke="black" points="174.12,-231.96 92.12,-231.96 92.12,-212.71 174.12,-212.71 174.12,-231.96"/>
<text text-anchor="middle" x="133.12" y="-219.41" font-family="Times New Roman,serif" font-size="9.00">&#45;1 &#45; Energy sensor</text>
</g>
<!-- 0 &#45; left_speed -->
<g id="node6" class="node">
<title>0 &#45; left_speed</title>
<ellipse fill="lightblue" stroke="black" cx="354.12" cy="-49.5" rx="46.32" ry="46.32"/>
<text text-anchor="middle" x="354.12" y="-46.57" font-family="Times New Roman,serif" font-size="9.00">0 &#45; left_speed</text>
</g>
<!-- &#45;1 &#45; Energy sensor&#45;&gt;0 &#45; left_speed -->
<g id="edge2" class="edge">
<title>&#45;1 &#45; Energy sensor&#45;&gt;0 &#45; left_speed</title>
<path fill="none" stroke="green" stroke-width="0.28" d="M130.35,-212.25C125.68,-194.99 118.5,-157.17 137.12,-134.99 184.28,-78.85 232.65,-132 298.12,-98.99 303.42,-96.32 308.63,-93.04 313.61,-89.46"/>
<polygon fill="green" stroke="green" stroke-width="0.28" points="315.62,-92.32 321.4,-83.45 311.34,-86.78 315.62,-92.32"/>
</g>
<!-- 200 -->
<g id="node11" class="node">
<title>200</title>
<ellipse fill="white" stroke="black" cx="167.12" cy="-155.85" rx="20.86" ry="20.86"/>
<text text-anchor="middle" x="167.12" y="-152.93" font-family="Times New Roman,serif" font-size="9.00">200</text>
</g>
<!-- &#45;1 &#45; Energy sensor&#45;&gt;200 -->
<g id="edge14" class="edge">
<title>&#45;1 &#45; Energy sensor&#45;&gt;200</title>
<path fill="none" stroke="red" stroke-width="0.28" d="M137.85,-212.37C141.76,-204.95 147.53,-194.01 152.92,-183.8"/>
<polygon fill="red" stroke="red" stroke-width="0.28" points="155.92,-185.61 157.49,-175.13 149.73,-182.34 155.92,-185.61"/>
</g>
<!-- 201 -->
<g id="node12" class="node">
<title>201</title>
<ellipse fill="white" stroke="black" cx="245.12" cy="-155.85" rx="20.86" ry="20.86"/>
<text text-anchor="middle" x="245.12" y="-152.93" font-family="Times New Roman,serif" font-size="9.00">201</text>
</g>
<!-- &#45;1 &#45; Energy sensor&#45;&gt;201 -->
<g id="edge13" class="edge">
<title>&#45;1 &#45; Energy sensor&#45;&gt;201</title>
<path fill="none" stroke="red" stroke-width="0.16" d="M150.65,-212.36C167.42,-203.64 193.32,-189.83 215.12,-176.71 216.6,-175.83 218.1,-174.9 219.61,-173.96"/>
<polygon fill="red" stroke="red" stroke-width="0.16" points="221.44,-176.94 227.96,-168.58 217.65,-171.06 221.44,-176.94"/>
</g>
<!-- &#45;2 &#45; Right poison sensor -->
<g id="node2" class="node">
<title>&#45;2 &#45; Right poison sensor</title>
<polygon fill="lightgray" stroke="black" points="524.62,-231.96 421.62,-231.96 421.62,-212.71 524.62,-212.71 524.62,-231.96"/>
<text text-anchor="middle" x="473.12" y="-219.41" font-family="Times New Roman,serif" font-size="9.00">&#45;2 &#45; Right poison sensor</text>
</g>
<!-- &#45;2 &#45; Right poison sensor&#45;&gt;0 &#45; left_speed -->
<g id="edge3" class="edge">
<title>&#45;2 &#45; Right poison sensor&#45;&gt;0 &#45; left_speed</title>
<path fill="none" stroke="green" stroke-width="0.12" d="M477.55,-212.37C484.99,-195.94 497.89,-160.36 484.12,-134.99 467.67,-104.68 435.12,-83.54 406.71,-69.99"/>
<polygon fill="green" stroke="green" stroke-width="0.12" points="408.38,-66.9 397.83,-65.93 405.47,-73.27 408.38,-66.9"/>
</g>
<!-- 1 &#45; right_speed -->
<g id="node7" class="node">
<title>1 &#45; right_speed</title>
<ellipse fill="lightblue" stroke="black" cx="222.12" cy="-49.5" rx="49.5" ry="49.5"/>
<text text-anchor="middle" x="222.12" y="-46.57" font-family="Times New Roman,serif" font-size="9.00">1 &#45; right_speed</text>
</g>
<!-- &#45;2 &#45; Right poison sensor&#45;&gt;1 &#45; right_speed -->
<g id="edge16" class="edge">
<title>&#45;2 &#45; Right poison sensor&#45;&gt;1 &#45; right_speed</title>
<path fill="none" stroke="green" stroke-width="0.53" d="M473.64,-212.3C474.12,-194.77 472.52,-156.04 451.12,-134.99 401.62,-86.32 363.14,-125.86 299.12,-98.99 289.72,-95.05 280.16,-90.01 271.12,-84.67"/>
<polygon fill="green" stroke="green" stroke-width="0.53" points="272.96,-81.69 262.6,-79.46 269.3,-87.67 272.96,-81.69"/>
</g>
<!-- 197 -->
<g id="node8" class="node">
<title>197</title>
<ellipse fill="white" stroke="black" cx="403.12" cy="-155.85" rx="20.86" ry="20.86"/>
<text text-anchor="middle" x="403.12" y="-152.93" font-family="Times New Roman,serif" font-size="9.00">197</text>
</g>
<!-- &#45;2 &#45; Right poison sensor&#45;&gt;197 -->
<g id="edge4" class="edge">
<title>&#45;2 &#45; Right poison sensor&#45;&gt;197</title>
<path fill="none" stroke="red" stroke-width="0.21" d="M463.39,-212.37C453.69,-203.43 438.43,-189.38 425.69,-177.65"/>
<polygon fill="red" stroke="red" stroke-width="0.21" points="428.12,-175.13 418.4,-170.92 423.38,-180.27 428.12,-175.13"/>
</g>
<!-- &#45;3 &#45; Left poison sensor -->
<g id="node3" class="node">
<title>&#45;3 &#45; Left poison sensor</title>
<polygon fill="lightgray" stroke="black" points="403.38,-231.96 304.88,-231.96 304.88,-212.71 403.38,-212.71 403.38,-231.96"/>
<text text-anchor="middle" x="354.12" y="-219.41" font-family="Times New Roman,serif" font-size="9.00">&#45;3 &#45; Left poison sensor</text>
</g>
<!-- &#45;3 &#45; Left poison sensor&#45;&gt;0 &#45; left_speed -->
<g id="edge26" class="edge">
<title>&#45;3 &#45; Left poison sensor&#45;&gt;0 &#45; left_speed</title>
<path fill="none" stroke="red" stroke-width="0.27" d="M354.12,-212.63C354.12,-193.22 354.12,-145.05 354.12,-106.22"/>
<polygon fill="red" stroke="red" stroke-width="0.27" points="357.63,-106.47 354.13,-96.47 350.63,-106.47 357.63,-106.47"/>
</g>
<!-- &#45;3 &#45; Left poison sensor&#45;&gt;197 -->
<g id="edge12" class="edge">
<title>&#45;3 &#45; Left poison sensor&#45;&gt;197</title>
<path fill="none" stroke="red" stroke-width="0.13" d="M360.94,-212.37C367.06,-204.32 376.33,-192.12 384.62,-181.21"/>
<polygon fill="red" stroke="red" stroke-width="0.13" points="387.32,-183.44 390.59,-173.36 381.75,-179.2 387.32,-183.44"/>
</g>
<!-- 198 -->
<g id="node9" class="node">
<title>198</title>
<ellipse fill="white" stroke="black" cx="305.12" cy="-155.85" rx="20.86" ry="20.86"/>
<text text-anchor="middle" x="305.12" y="-152.93" font-family="Times New Roman,serif" font-size="9.00">198</text>
</g>
<!-- &#45;3 &#45; Left poison sensor&#45;&gt;198 -->
<g id="edge11" class="edge">
<title>&#45;3 &#45; Left poison sensor&#45;&gt;198</title>
<path fill="none" stroke="green" stroke-width="0.38" d="M347.31,-212.37C341.25,-204.4 332.1,-192.36 323.87,-181.53"/>
<polygon fill="green" stroke="green" stroke-width="0.38" points="326.73,-179.5 317.89,-173.65 321.15,-183.73 326.73,-179.5"/>
</g>
<!-- &#45;3 &#45; Left poison sensor&#45;&gt;201 -->
<g id="edge9" class="edge">
<title>&#45;3 &#45; Left poison sensor&#45;&gt;201</title>
<path fill="none" stroke="red" stroke-width="0.19" d="M337.28,-212.27C321.15,-203.49 296.22,-189.63 275.12,-176.71 273.66,-175.82 272.16,-174.88 270.66,-173.93"/>
<polygon fill="red" stroke="red" stroke-width="0.19" points="272.67,-171.06 262.37,-168.57 268.86,-176.94 272.67,-171.06"/>
</g>
<!-- &#45;4 &#45; Right food sensor -->
<g id="node4" class="node">
<title>&#45;4 &#45; Right food sensor</title>
<polygon fill="lightgray" stroke="black" points="286.5,-231.96 191.75,-231.96 191.75,-212.71 286.5,-212.71 286.5,-231.96"/>
<text text-anchor="middle" x="239.12" y="-219.41" font-family="Times New Roman,serif" font-size="9.00">&#45;4 &#45; Right food sensor</text>
</g>
<!-- &#45;4 &#45; Right food sensor&#45;&gt;198 -->
<g id="edge17" class="edge">
<title>&#45;4 &#45; Right food sensor&#45;&gt;198</title>
<path fill="none" stroke="green" stroke-width="0.25" d="M248.3,-212.37C257.25,-203.63 271.21,-190 283.05,-178.43"/>
<polygon fill="green" stroke="green" stroke-width="0.25" points="285.47,-180.95 290.18,-171.46 280.58,-175.95 285.47,-180.95"/>
</g>
<!-- &#45;4 &#45; Right food sensor&#45;&gt;200 -->
<g id="edge15" class="edge">
<title>&#45;4 &#45; Right food sensor&#45;&gt;200</title>
<path fill="none" stroke="red" stroke-width="0.37" d="M229.11,-212.37C219.07,-203.37 203.24,-189.2 190.09,-177.42"/>
<polygon fill="red" stroke="red" stroke-width="0.37" points="192.53,-174.91 182.74,-170.84 187.86,-180.12 192.53,-174.91"/>
</g>
<!-- &#45;4 &#45; Right food sensor&#45;&gt;201 -->
<g id="edge23" class="edge">
<title>&#45;4 &#45; Right food sensor&#45;&gt;201</title>
<path fill="none" stroke="green" stroke-width="0.14" d="M239.96,-212.37C240.58,-205.73 241.46,-196.28 242.32,-187.05"/>
<polygon fill="green" stroke="green" stroke-width="0.14" points="245.8,-187.38 243.24,-177.1 238.83,-186.73 245.8,-187.38"/>
</g>
<!-- &#45;5 &#45; Left food sensor -->
<g id="node5" class="node">
<title>&#45;5 &#45; Left food sensor</title>
<polygon fill="lightgray" stroke="black" points="90.25,-165.48 0,-165.48 0,-146.23 90.25,-146.23 90.25,-165.48"/>
<text text-anchor="middle" x="45.12" y="-152.93" font-family="Times New Roman,serif" font-size="9.00">&#45;5 &#45; Left food sensor</text>
</g>
<!-- &#45;5 &#45; Left food sensor&#45;&gt;1 &#45; right_speed -->
<g id="edge18" class="edge">
<title>&#45;5 &#45; Left food sensor&#45;&gt;1 &#45; right_speed</title>
<path fill="none" stroke="red" stroke-width="0.15" d="M60.52,-145.78C84.89,-131.41 133.44,-102.78 170.99,-80.64"/>
<polygon fill="red" stroke="red" stroke-width="0.15" points="172.77,-83.66 179.6,-75.57 169.21,-77.63 172.77,-83.66"/>
</g>
<!-- 199 -->
<g id="node10" class="node">
<title>199</title>
<ellipse fill="white" stroke="black" cx="45.12" cy="-49.5" rx="20.86" ry="20.86"/>
<text text-anchor="middle" x="45.12" y="-46.57" font-family="Times New Roman,serif" font-size="9.00">199</text>
</g>
<!-- &#45;5 &#45; Left food sensor&#45;&gt;199 -->
<g id="edge24" class="edge">
<title>&#45;5 &#45; Left food sensor&#45;&gt;199</title>
<path fill="none" stroke="red" stroke-width="0.39" d="M45.12,-145.96C45.12,-131.72 45.12,-103.18 45.12,-81"/>
<polygon fill="red" stroke="red" stroke-width="0.39" points="48.63,-81.3 45.13,-71.3 41.63,-81.3 48.63,-81.3"/>
</g>
<!-- 0 &#45; left_speed&#45;&gt;0 &#45; left_speed -->
<g id="edge7" class="edge">
<title>0 &#45; left_speed&#45;&gt;0 &#45; left_speed</title>
<path fill="none" stroke="green" stroke-width="0.28" d="M396.5,-69.38C408.86,-68.69 418.44,-62.07 418.44,-49.5 418.44,-40.66 413.7,-34.76 406.59,-31.8"/>
<polygon fill="green" stroke="green" stroke-width="0.28" points="407.42,-28.4 396.91,-29.7 405.94,-35.24 407.42,-28.4"/>
</g>
<!-- 1 &#45; right_speed&#45;&gt;1 &#45; right_speed -->
<g id="edge6" class="edge">
<title>1 &#45; right_speed&#45;&gt;1 &#45; right_speed</title>
<path fill="none" stroke="red" stroke-width="0.18" d="M267.87,-69.29C280.22,-68.25 289.62,-61.65 289.62,-49.5 289.62,-40.76 284.77,-34.9 277.45,-31.9"/>
<polygon fill="red" stroke="red" stroke-width="0.18" points="278.66,-28.59 268.13,-29.76 277.1,-35.41 278.66,-28.59"/>
</g>
<!-- 197&#45;&gt;0 &#45; left_speed -->
<g id="edge10" class="edge">
<title>197&#45;&gt;0 &#45; left_speed</title>
<path fill="none" stroke="green" stroke-width="0.17" d="M394.59,-136.68C389.91,-126.71 383.86,-113.82 377.87,-101.06"/>
<polygon fill="green" stroke="green" stroke-width="0.17" points="381.06,-99.63 373.64,-92.07 374.73,-102.61 381.06,-99.63"/>
</g>
<!-- 197&#45;&gt;197 -->
<g id="edge25" class="edge">
<title>197&#45;&gt;197</title>
<path fill="none" stroke="green" stroke-width="0.23" d="M420.71,-167.44C431.61,-170.23 441.98,-166.37 441.98,-155.85 441.98,-148.79 437.3,-144.73 430.92,-143.67"/>
<polygon fill="green" stroke="green" stroke-width="0.23" points="430.84,-140.17 421.06,-144.25 431.25,-147.15 430.84,-140.17"/>
</g>
<!-- 198&#45;&gt;0 &#45; left_speed -->
<g id="edge1" class="edge">
<title>198&#45;&gt;0 &#45; left_speed</title>
<path fill="none" stroke="red" stroke-width="0.34" d="M313.66,-136.68C318.34,-126.71 324.39,-113.82 330.38,-101.06"/>
<polygon fill="red" stroke="red" stroke-width="0.34" points="333.41,-102.84 334.5,-92.3 327.08,-99.87 333.41,-102.84"/>
</g>
<!-- 198&#45;&gt;1 &#45; right_speed -->
<g id="edge20" class="edge">
<title>198&#45;&gt;1 &#45; right_speed</title>
<path fill="none" stroke="red" stroke-width="0.19" d="M292.52,-139C283.48,-127.64 270.82,-111.72 258.72,-96.5"/>
<polygon fill="red" stroke="red" stroke-width="0.19" points="261.6,-94.51 252.64,-88.86 256.12,-98.87 261.6,-94.51"/>
</g>
<!-- 199&#45;&gt;199 -->
<g id="edge5" class="edge">
<title>199&#45;&gt;199</title>
<path fill="none" stroke="green" stroke-width="0.23" d="M58.67,-65.89C70.89,-73.87 83.98,-68.4 83.98,-49.5 83.98,-35.62 76.92,-28.98 68.33,-29.59"/>
<polygon fill="green" stroke="green" stroke-width="0.23" points="67.2,-26.28 59,-32.98 69.59,-32.86 67.2,-26.28"/>
</g>
<!-- 200&#45;&gt;1 &#45; right_speed -->
<g id="edge21" class="edge">
<title>200&#45;&gt;1 &#45; right_speed</title>
<path fill="none" stroke="green" stroke-width="0.28" d="M176.46,-137.15C181.54,-127.51 188.11,-115.03 194.69,-102.56"/>
<polygon fill="green" stroke="green" stroke-width="0.28" points="197.69,-104.37 199.26,-93.89 191.5,-101.1 197.69,-104.37"/>
</g>
<!-- 200&#45;&gt;200 -->
<g id="edge19" class="edge">
<title>200&#45;&gt;200</title>
<path fill="none" stroke="red" stroke-width="0.34" d="M184.71,-167.44C195.61,-170.23 205.98,-166.37 205.98,-155.85 205.98,-148.79 201.3,-144.73 194.92,-143.67"/>
<polygon fill="red" stroke="red" stroke-width="0.34" points="195,-140.16 185.23,-144.24 195.42,-147.14 195,-140.16"/>
</g>
<!-- 201&#45;&gt;0 &#45; left_speed -->
<g id="edge8" class="edge">
<title>201&#45;&gt;0 &#45; left_speed</title>
<path fill="none" stroke="green" stroke-width="0.23" d="M259.83,-140.78C273.57,-127.62 294.75,-107.34 313.56,-89.34"/>
<polygon fill="green" stroke="green" stroke-width="0.23" points="315.84,-91.99 320.65,-82.55 311,-86.94 315.84,-91.99"/>
</g>
<!-- 201&#45;&gt;1 &#45; right_speed -->
<g id="edge22" class="edge">
<title>201&#45;&gt;1 &#45; right_speed</title>
<path fill="none" stroke="green" stroke-width="0.47" d="M240.8,-135.23C239.1,-127.51 237.05,-118.21 234.94,-108.64"/>
<polygon fill="green" stroke="green" stroke-width="0.47" points="238.36,-107.92 232.79,-98.9 231.53,-109.42 238.36,-107.92"/>
</g>
</g>
</svg>
