<?xml version="1.0" encoding="UTF-8" standalone="no"?>
<!DOCTYPE svg PUBLIC "-//W3C//DTD SVG 1.1//EN"
 "http://www.w3.org/Graphics/SVG/1.1/DTD/svg11.dtd">
<!-- Generated by graphviz version 9.0.0 (20230911.1827)
 -->
<!-- Pages: 1 -->
<svg width="636pt" height="404pt"
 viewBox="0.00 0.00 636.04 403.79" xmlns="http://www.w3.org/2000/svg" xmlns:xlink="http://www.w3.org/1999/xlink">
<g id="graph0" class="graph" transform="scale(1 1) rotate(0) translate(4 399.79)">
<polygon fill="white" stroke="none" points="-4,4 -4,-399.79 632.04,-399.79 632.04,4 -4,4"/>
<!-- &#45;1 &#45; Energy sensor -->
<g id="node1" class="node">
<title>&#45;1 &#45; Energy sensor</title>
<polygon fill="lightgray" stroke="black" points="82,-359.1 0,-359.1 0,-339.85 82,-339.85 82,-359.1"/>
<text text-anchor="middle" x="41" y="-346.55" font-family="Times New Roman,serif" font-size="9.00">&#45;1 &#45; Energy sensor</text>
</g>
<!-- &#45;2 &#45; Right poison sensor -->
<g id="node2" class="node">
<title>&#45;2 &#45; Right poison sensor</title>
<polygon fill="lightgray" stroke="black" points="203.5,-359.1 100.5,-359.1 100.5,-339.85 203.5,-339.85 203.5,-359.1"/>
<text text-anchor="middle" x="152" y="-346.55" font-family="Times New Roman,serif" font-size="9.00">&#45;2 &#45; Right poison sensor</text>
</g>
<!-- &#45;3 &#45; Left poison sensor -->
<g id="node3" class="node">
<title>&#45;3 &#45; Left poison sensor</title>
<polygon fill="lightgray" stroke="black" points="320.25,-359.1 221.75,-359.1 221.75,-339.85 320.25,-339.85 320.25,-359.1"/>
<text text-anchor="middle" x="271" y="-346.55" font-family="Times New Roman,serif" font-size="9.00">&#45;3 &#45; Left poison sensor</text>
</g>
<!-- 1209 -->
<g id="node9" class="node">
<title>1209</title>
<ellipse fill="white" stroke="black" cx="271" cy="-243.12" rx="24.04" ry="24.04"/>
<text text-anchor="middle" x="271" y="-240.19" font-family="Times New Roman,serif" font-size="9.00">1209</text>
</g>
<!-- &#45;3 &#45; Left poison sensor&#45;&gt;1209 -->
<g id="edge5" class="edge">
<title>&#45;3 &#45; Left poison sensor&#45;&gt;1209</title>
<path fill="none" stroke="green" stroke-width="0.43" d="M271,-339.58C271,-326 271,-299.4 271,-277.72"/>
<polygon fill="green" stroke="green" stroke-width="0.43" points="274.5,-277.9 271,-267.9 267.5,-277.9 274.5,-277.9"/>
</g>
<!-- &#45;4 &#45; Right food sensor -->
<g id="node4" class="node">
<title>&#45;4 &#45; Right food sensor</title>
<polygon fill="lightgray" stroke="black" points="433.38,-359.1 338.62,-359.1 338.62,-339.85 433.38,-339.85 433.38,-359.1"/>
<text text-anchor="middle" x="386" y="-346.55" font-family="Times New Roman,serif" font-size="9.00">&#45;4 &#45; Right food sensor</text>
</g>
<!-- &#45;5 &#45; Left food sensor -->
<g id="node5" class="node">
<title>&#45;5 &#45; Left food sensor</title>
<polygon fill="lightgray" stroke="black" points="403.12,-252.74 312.88,-252.74 312.88,-233.49 403.12,-233.49 403.12,-252.74"/>
<text text-anchor="middle" x="358" y="-240.19" font-family="Times New Roman,serif" font-size="9.00">&#45;5 &#45; Left food sensor</text>
</g>
<!-- 1 &#45; right_speed -->
<g id="node7" class="node">
<title>1 &#45; right_speed</title>
<ellipse fill="lightblue" stroke="black" cx="314" cy="-133.58" rx="49.5" ry="49.5"/>
<text text-anchor="middle" x="314" y="-130.66" font-family="Times New Roman,serif" font-size="9.00">1 &#45; right_speed</text>
</g>
<!-- &#45;5 &#45; Left food sensor&#45;&gt;1 &#45; right_speed -->
<g id="edge1" class="edge">
<title>&#45;5 &#45; Left food sensor&#45;&gt;1 &#45; right_speed</title>
<path fill="none" stroke="red" stroke-width="0.64" d="M354.4,-233.32C350.38,-223.51 343.54,-206.78 336.62,-189.85"/>
<polygon fill="red" stroke="red" stroke-width="0.64" points="339.94,-188.74 332.91,-180.81 333.46,-191.39 339.94,-188.74"/>
</g>
<!-- 0 &#45; left_speed -->
<g id="node6" class="node">
<title>0 &#45; left_speed</title>
<ellipse fill="lightblue" stroke="black" cx="498" cy="-349.48" rx="46.32" ry="46.32"/>
<text text-anchor="middle" x="498" y="-346.55" font-family="Times New Roman,serif" font-size="9.00">0 &#45; left_speed</text>
</g>
<!-- 1147 -->
<g id="node8" class="node">
<title>1147</title>
<ellipse fill="white" stroke="black" cx="314" cy="-24.04" rx="24.04" ry="24.04"/>
<text text-anchor="middle" x="314" y="-21.12" font-family="Times New Roman,serif" font-size="9.00">1147</text>
</g>
<!-- 1 &#45; right_speed&#45;&gt;1147 -->
<g id="edge3" class="edge">
<title>1 &#45; right_speed&#45;&gt;1147</title>
<path fill="none" stroke="red" stroke-width="0.46" d="M307.28,-84.16C307.18,-75.42 307.32,-66.49 307.71,-58.31"/>
<polygon fill="red" stroke="red" stroke-width="0.46" points="311.2,-58.59 308.33,-48.39 304.21,-58.15 311.2,-58.59"/>
</g>
<!-- 1147&#45;&gt;1 &#45; right_speed -->
<g id="edge4" class="edge">
<title>1147&#45;&gt;1 &#45; right_speed</title>
<path fill="none" stroke="red" stroke-width="0.11" d="M319.62,-47.7C320.26,-55.51 320.63,-64.66 320.73,-74"/>
<polygon fill="red" stroke="red" stroke-width="0.11" points="317.23,-73.99 320.72,-83.99 324.23,-73.99 317.23,-73.99"/>
</g>
<!-- 1209&#45;&gt;1 &#45; right_speed -->
<g id="edge6" class="edge">
<title>1209&#45;&gt;1 &#45; right_speed</title>
<path fill="none" stroke="red" stroke-width="0.15" d="M279.7,-220.36C283.34,-211.25 287.76,-200.21 292.19,-189.13"/>
<polygon fill="red" stroke="red" stroke-width="0.15" points="295.35,-190.65 295.81,-180.07 288.85,-188.05 295.35,-190.65"/>
</g>
<!-- 1047 -->
<g id="node10" class="node">
<title>1047</title>
<ellipse fill="none" stroke="black" cx="586" cy="-349.48" rx="24.04" ry="24.04"/>
<text text-anchor="middle" x="586" y="-346.55" font-family="Times New Roman,serif" font-size="9.00">1047</text>
</g>
<!-- 1047&#45;&gt;1047 -->
<g id="edge2" class="edge">
<title>1047&#45;&gt;1047</title>
<path fill="none" stroke="red" stroke-width="0.21" d="M602.84,-367.06C615.39,-373.2 628.04,-367.34 628.04,-349.48 628.04,-336.36 621.22,-329.71 612.62,-329.54"/>
<polygon fill="red" stroke="red" stroke-width="0.21" points="612.05,-326.08 603.15,-331.82 613.69,-332.88 612.05,-326.08"/>
</g>
</g>
</svg>
