<?xml version="1.0" encoding="UTF-8" standalone="no"?>
<!DOCTYPE svg PUBLIC "-//W3C//DTD SVG 1.1//EN"
 "http://www.w3.org/Graphics/SVG/1.1/DTD/svg11.dtd">
<!-- Generated by graphviz version 9.0.0 (20230911.1827)
 -->
<!-- Pages: 1 -->
<svg width="615pt" height="404pt"
 viewBox="0.00 0.00 615.18 403.79" xmlns="http://www.w3.org/2000/svg" xmlns:xlink="http://www.w3.org/1999/xlink">
<g id="graph0" class="graph" transform="scale(1 1) rotate(0) translate(4 399.79)">
<polygon fill="white" stroke="none" points="-4,4 -4,-399.79 611.18,-399.79 611.18,4 -4,4"/>
<!-- &#45;1 &#45; Energy sensor -->
<g id="node1" class="node">
<title>&#45;1 &#45; Energy sensor</title>
<polygon fill="lightgray" stroke="black" points="87.32,-381.38 5.32,-381.38 5.32,-362.13 87.32,-362.13 87.32,-381.38"/>
<text text-anchor="middle" x="46.32" y="-368.83" font-family="Times New Roman,serif" font-size="9.00">&#45;1 &#45; Energy sensor</text>
</g>
<!-- 0 &#45; left_speed -->
<g id="node6" class="node">
<title>0 &#45; left_speed</title>
<ellipse fill="lightblue" stroke="black" cx="46.32" cy="-265.39" rx="46.32" ry="46.32"/>
<text text-anchor="middle" x="46.32" y="-262.47" font-family="Times New Roman,serif" font-size="9.00">0 &#45; left_speed</text>
</g>
<!-- &#45;1 &#45; Energy sensor&#45;&gt;0 &#45; left_speed -->
<g id="edge3" class="edge">
<title>&#45;1 &#45; Energy sensor&#45;&gt;0 &#45; left_speed</title>
<path fill="none" stroke="red" stroke-width="0.59" stroke-dasharray="1,5" d="M46.32,-361.85C46.32,-352.8 46.32,-337.97 46.32,-322.66"/>
<polygon fill="red" stroke="red" stroke-width="0.59" points="49.82,-322.94 46.32,-312.94 42.82,-322.94 49.82,-322.94"/>
</g>
<!-- &#45;2 &#45; Right poison sensor -->
<g id="node2" class="node">
<title>&#45;2 &#45; Right poison sensor</title>
<polygon fill="lightgray" stroke="black" points="208.82,-381.38 105.82,-381.38 105.82,-362.13 208.82,-362.13 208.82,-381.38"/>
<text text-anchor="middle" x="157.32" y="-368.83" font-family="Times New Roman,serif" font-size="9.00">&#45;2 &#45; Right poison sensor</text>
</g>
<!-- &#45;3 &#45; Left poison sensor -->
<g id="node3" class="node">
<title>&#45;3 &#45; Left poison sensor</title>
<polygon fill="lightgray" stroke="black" points="325.57,-381.38 227.07,-381.38 227.07,-362.13 325.57,-362.13 325.57,-381.38"/>
<text text-anchor="middle" x="276.32" y="-368.83" font-family="Times New Roman,serif" font-size="9.00">&#45;3 &#45; Left poison sensor</text>
</g>
<!-- 1 &#45; right_speed -->
<g id="node7" class="node">
<title>1 &#45; right_speed</title>
<ellipse fill="lightblue" stroke="black" cx="391.32" cy="-133.58" rx="49.5" ry="49.5"/>
<text text-anchor="middle" x="391.32" y="-130.66" font-family="Times New Roman,serif" font-size="9.00">1 &#45; right_speed</text>
</g>
<!-- &#45;3 &#45; Left poison sensor&#45;&gt;1 &#45; right_speed -->
<g id="edge1" class="edge">
<title>&#45;3 &#45; Left poison sensor&#45;&gt;1 &#45; right_speed</title>
<path fill="none" stroke="red" stroke-width="0.19" stroke-dasharray="1,5" d="M272.99,-361.88C264.4,-337.42 243.87,-267.65 269.32,-219.08 283.65,-191.72 311.3,-171.46 336.67,-157.64"/>
<polygon fill="red" stroke="red" stroke-width="0.19" points="338.02,-160.88 345.27,-153.15 334.78,-154.68 338.02,-160.88"/>
</g>
<!-- 1209 -->
<g id="node10" class="node">
<title>1209</title>
<ellipse fill="white" stroke="black" cx="302.32" cy="-265.39" rx="24.04" ry="24.04"/>
<text text-anchor="middle" x="302.32" y="-262.47" font-family="Times New Roman,serif" font-size="9.00">1209</text>
</g>
<!-- &#45;3 &#45; Left poison sensor&#45;&gt;1209 -->
<g id="edge10" class="edge">
<title>&#45;3 &#45; Left poison sensor&#45;&gt;1209</title>
<path fill="none" stroke="green" stroke-width="0.43" d="M278.53,-361.85C281.95,-348.13 288.69,-321.1 294.12,-299.3"/>
<polygon fill="green" stroke="green" stroke-width="0.43" points="297.48,-300.28 296.5,-289.73 290.69,-298.59 297.48,-300.28"/>
</g>
<!-- &#45;4 &#45; Right food sensor -->
<g id="node4" class="node">
<title>&#45;4 &#45; Right food sensor</title>
<polygon fill="lightgray" stroke="black" points="438.69,-275.02 343.94,-275.02 343.94,-255.77 438.69,-255.77 438.69,-275.02"/>
<text text-anchor="middle" x="391.32" y="-262.47" font-family="Times New Roman,serif" font-size="9.00">&#45;4 &#45; Right food sensor</text>
</g>
<!-- &#45;4 &#45; Right food sensor&#45;&gt;1 &#45; right_speed -->
<g id="edge4" class="edge">
<title>&#45;4 &#45; Right food sensor&#45;&gt;1 &#45; right_speed</title>
<path fill="none" stroke="red" stroke-width="1.76" stroke-dasharray="1,5" d="M391.32,-255.47C391.32,-242.94 391.32,-219.06 391.32,-195.81"/>
<polygon fill="red" stroke="red" stroke-width="1.76" points="394.82,-196.08 391.32,-186.08 387.82,-196.08 394.82,-196.08"/>
</g>
<!-- &#45;5 &#45; Left food sensor -->
<g id="node5" class="node">
<title>&#45;5 &#45; Left food sensor</title>
<polygon fill="lightgray" stroke="black" points="547.44,-275.02 457.19,-275.02 457.19,-255.77 547.44,-255.77 547.44,-275.02"/>
<text text-anchor="middle" x="502.32" y="-262.47" font-family="Times New Roman,serif" font-size="9.00">&#45;5 &#45; Left food sensor</text>
</g>
<!-- &#45;5 &#45; Left food sensor&#45;&gt;1 &#45; right_speed -->
<g id="edge2" class="edge">
<title>&#45;5 &#45; Left food sensor&#45;&gt;1 &#45; right_speed</title>
<path fill="none" stroke="red" stroke-width="0.64" d="M494.69,-255.47C481.55,-240.11 453.8,-207.66 430.36,-180.24"/>
<polygon fill="red" stroke="red" stroke-width="0.64" points="433.03,-177.98 423.87,-172.65 427.71,-182.53 433.03,-177.98"/>
</g>
<!-- 1 &#45; right_speed&#45;&gt;1 &#45; right_speed -->
<g id="edge5" class="edge">
<title>1 &#45; right_speed&#45;&gt;1 &#45; right_speed</title>
<path fill="none" stroke="red" stroke-width="0.22" stroke-dasharray="1,5" d="M436.74,-153.99C449.25,-153.01 458.81,-146.2 458.81,-133.58 458.81,-124.51 453.87,-118.44 446.45,-115.38"/>
<polygon fill="red" stroke="red" stroke-width="0.22" points="447.6,-112.05 437.07,-113.24 446.04,-118.88 447.6,-112.05"/>
</g>
<!-- 1147 -->
<g id="node11" class="node">
<title>1147</title>
<ellipse fill="white" stroke="black" cx="391.32" cy="-24.04" rx="24.04" ry="24.04"/>
<text text-anchor="middle" x="391.32" y="-21.12" font-family="Times New Roman,serif" font-size="9.00">1147</text>
</g>
<!-- 1 &#45; right_speed&#45;&gt;1147 -->
<g id="edge8" class="edge">
<title>1 &#45; right_speed&#45;&gt;1147</title>
<path fill="none" stroke="red" stroke-width="0.46" d="M384.6,-84.16C384.5,-75.42 384.64,-66.49 385.02,-58.31"/>
<polygon fill="red" stroke="red" stroke-width="0.46" points="388.51,-58.59 385.65,-48.39 381.52,-58.15 388.51,-58.59"/>
</g>
<!-- 676 -->
<g id="node8" class="node">
<title>676</title>
<ellipse fill="white" stroke="black" cx="586.32" cy="-265.39" rx="20.86" ry="20.86"/>
<text text-anchor="middle" x="586.32" y="-262.47" font-family="Times New Roman,serif" font-size="9.00">676</text>
</g>
<!-- 676&#45;&gt;1 &#45; right_speed -->
<g id="edge6" class="edge">
<title>676&#45;&gt;1 &#45; right_speed</title>
<path fill="none" stroke="green" stroke-width="0.28" stroke-dasharray="1,5" d="M577.31,-246.45C572.11,-237.4 564.9,-226.75 556.32,-219.08 524.52,-190.64 481.42,-169 447.24,-154.74"/>
<polygon fill="green" stroke="green" stroke-width="0.28" points="448.83,-151.61 438.25,-151.08 446.19,-158.09 448.83,-151.61"/>
</g>
<!-- 1047 -->
<g id="node9" class="node">
<title>1047</title>
<ellipse fill="white" stroke="black" cx="367.32" cy="-371.75" rx="24.04" ry="24.04"/>
<text text-anchor="middle" x="367.32" y="-368.83" font-family="Times New Roman,serif" font-size="9.00">1047</text>
</g>
<!-- 1047&#45;&gt;1047 -->
<g id="edge7" class="edge">
<title>1047&#45;&gt;1047</title>
<path fill="none" stroke="red" stroke-width="0.21" d="M384.15,-389.34C396.7,-395.48 409.36,-389.62 409.36,-371.75 409.36,-358.63 402.53,-351.99 393.94,-351.81"/>
<polygon fill="red" stroke="red" stroke-width="0.21" points="393.37,-348.35 384.46,-354.09 395.01,-355.15 393.37,-348.35"/>
</g>
<!-- 1209&#45;&gt;1 &#45; right_speed -->
<g id="edge11" class="edge">
<title>1209&#45;&gt;1 &#45; right_speed</title>
<path fill="none" stroke="red" stroke-width="0.15" d="M315.64,-244.96C326.77,-228.72 343.13,-204.86 357.79,-183.47"/>
<polygon fill="red" stroke="red" stroke-width="0.15" points="360.63,-185.53 363.4,-175.3 354.85,-181.57 360.63,-185.53"/>
</g>
<!-- 1147&#45;&gt;1 &#45; right_speed -->
<g id="edge9" class="edge">
<title>1147&#45;&gt;1 &#45; right_speed</title>
<path fill="none" stroke="red" stroke-width="0.11" d="M396.94,-47.7C397.58,-55.51 397.95,-64.66 398.04,-74"/>
<polygon fill="red" stroke="red" stroke-width="0.11" points="394.54,-73.99 398.04,-83.99 401.54,-73.99 394.54,-73.99"/>
</g>
</g>
</svg>
