<?xml version="1.0" encoding="UTF-8" standalone="no"?>
<!DOCTYPE svg PUBLIC "-//W3C//DTD SVG 1.1//EN"
 "http://www.w3.org/Graphics/SVG/1.1/DTD/svg11.dtd">
<!-- Generated by graphviz version 9.0.0 (20230911.1827)
 -->
<!-- Pages: 1 -->
<svg width="577pt" height="240pt"
 viewBox="0.00 0.00 576.69 239.96" xmlns="http://www.w3.org/2000/svg" xmlns:xlink="http://www.w3.org/1999/xlink">
<g id="graph0" class="graph" transform="scale(1 1) rotate(0) translate(4 235.96)">
<polygon fill="white" stroke="none" points="-4,4 -4,-235.96 572.69,-235.96 572.69,4 -4,4"/>
<!-- &#45;1 &#45; Energy sensor -->
<g id="node1" class="node">
<title>&#45;1 &#45; Energy sensor</title>
<polygon fill="lightgray" stroke="black" points="147.44,-231.96 65.44,-231.96 65.44,-212.71 147.44,-212.71 147.44,-231.96"/>
<text text-anchor="middle" x="106.44" y="-219.41" font-family="Times New Roman,serif" font-size="9.00">&#45;1 &#45; Energy sensor</text>
</g>
<!-- 1 &#45; right_speed -->
<g id="node7" class="node">
<title>1 &#45; right_speed</title>
<ellipse fill="lightblue" stroke="black" cx="75.44" cy="-49.5" rx="49.5" ry="49.5"/>
<text text-anchor="middle" x="75.44" y="-46.57" font-family="Times New Roman,serif" font-size="9.00">1 &#45; right_speed</text>
</g>
<!-- &#45;1 &#45; Energy sensor&#45;&gt;1 &#45; right_speed -->
<g id="edge7" class="edge">
<title>&#45;1 &#45; Energy sensor&#45;&gt;1 &#45; right_speed</title>
<path fill="none" stroke="green" stroke-width="0.29" d="M64.99,-213.72C43.94,-207.52 20.18,-196.43 7.44,-176.71 -10.62,-148.77 8.72,-115.59 31.33,-90.27"/>
<polygon fill="green" stroke="green" stroke-width="0.29" points="33.85,-92.7 38.11,-83 28.73,-87.92 33.85,-92.7"/>
</g>
<!-- 32 -->
<g id="node9" class="node">
<title>32</title>
<ellipse fill="white" stroke="black" cx="34.44" cy="-155.85" rx="17.68" ry="17.68"/>
<text text-anchor="middle" x="34.44" y="-152.93" font-family="Times New Roman,serif" font-size="9.00">32</text>
</g>
<!-- &#45;1 &#45; Energy sensor&#45;&gt;32 -->
<g id="edge2" class="edge">
<title>&#45;1 &#45; Energy sensor&#45;&gt;32</title>
<path fill="none" stroke="red" stroke-width="0.45" d="M96.43,-212.37C85.8,-202.86 68.71,-187.55 55.17,-175.42"/>
<polygon fill="red" stroke="red" stroke-width="0.45" points="57.57,-172.88 47.79,-168.81 52.9,-178.09 57.57,-172.88"/>
</g>
<!-- 36 -->
<g id="node10" class="node">
<title>36</title>
<ellipse fill="white" stroke="black" cx="249.44" cy="-155.85" rx="17.68" ry="17.68"/>
<text text-anchor="middle" x="249.44" y="-152.93" font-family="Times New Roman,serif" font-size="9.00">36</text>
</g>
<!-- &#45;1 &#45; Energy sensor&#45;&gt;36 -->
<g id="edge12" class="edge">
<title>&#45;1 &#45; Energy sensor&#45;&gt;36</title>
<path fill="none" stroke="green" stroke-width="0.25" d="M137.32,-212.26C161.55,-204.51 195.71,-192.16 223.44,-176.71 224.94,-175.88 226.45,-174.96 227.94,-174"/>
<polygon fill="green" stroke="green" stroke-width="0.25" points="229.75,-177 235.88,-168.36 225.7,-171.3 229.75,-177"/>
</g>
<!-- 33 -->
<g id="node11" class="node">
<title>33</title>
<ellipse fill="white" stroke="black" cx="196.44" cy="-155.85" rx="17.68" ry="17.68"/>
<text text-anchor="middle" x="196.44" y="-152.93" font-family="Times New Roman,serif" font-size="9.00">33</text>
</g>
<!-- &#45;1 &#45; Energy sensor&#45;&gt;33 -->
<g id="edge19" class="edge">
<title>&#45;1 &#45; Energy sensor&#45;&gt;33</title>
<path fill="none" stroke="red" stroke-width="0.18" d="M119.03,-212.51C131.79,-203.56 152.05,-189.27 169.44,-176.71 171.03,-175.56 172.67,-174.37 174.32,-173.17"/>
<polygon fill="red" stroke="red" stroke-width="0.18" points="176.23,-176.11 182.23,-167.38 172.1,-170.46 176.23,-176.11"/>
</g>
<!-- &#45;2 &#45; Right poison sensor -->
<g id="node2" class="node">
<title>&#45;2 &#45; Right poison sensor</title>
<polygon fill="lightgray" stroke="black" points="451.94,-231.96 348.94,-231.96 348.94,-212.71 451.94,-212.71 451.94,-231.96"/>
<text text-anchor="middle" x="400.44" y="-219.41" font-family="Times New Roman,serif" font-size="9.00">&#45;2 &#45; Right poison sensor</text>
</g>
<!-- 34 -->
<g id="node8" class="node">
<title>34</title>
<ellipse fill="white" stroke="black" cx="473.44" cy="-155.85" rx="17.68" ry="17.68"/>
<text text-anchor="middle" x="473.44" y="-152.93" font-family="Times New Roman,serif" font-size="9.00">34</text>
</g>
<!-- &#45;2 &#45; Right poison sensor&#45;&gt;34 -->
<g id="edge15" class="edge">
<title>&#45;2 &#45; Right poison sensor&#45;&gt;34</title>
<path fill="none" stroke="green" stroke-width="0.27" d="M410.59,-212.37C421.46,-202.77 439.01,-187.26 452.81,-175.08"/>
<polygon fill="green" stroke="green" stroke-width="0.27" points="454.94,-177.87 460.11,-168.62 450.3,-172.62 454.94,-177.87"/>
</g>
<!-- &#45;2 &#45; Right poison sensor&#45;&gt;36 -->
<g id="edge20" class="edge">
<title>&#45;2 &#45; Right poison sensor&#45;&gt;36</title>
<path fill="none" stroke="red" stroke-width="0.13" d="M379.12,-212.24C351.66,-200.51 303.98,-180.15 274.72,-167.65"/>
<polygon fill="red" stroke="red" stroke-width="0.13" points="276.31,-164.53 265.74,-163.82 273.56,-170.96 276.31,-164.53"/>
</g>
<!-- 35 -->
<g id="node12" class="node">
<title>35</title>
<ellipse fill="white" stroke="black" cx="359.44" cy="-155.85" rx="17.68" ry="17.68"/>
<text text-anchor="middle" x="359.44" y="-152.93" font-family="Times New Roman,serif" font-size="9.00">35</text>
</g>
<!-- &#45;2 &#45; Right poison sensor&#45;&gt;35 -->
<g id="edge21" class="edge">
<title>&#45;2 &#45; Right poison sensor&#45;&gt;35</title>
<path fill="none" stroke="red" stroke-width="0.31" d="M394.74,-212.37C389.39,-203.96 381.16,-191.03 374,-179.76"/>
<polygon fill="red" stroke="red" stroke-width="0.31" points="377.12,-178.15 368.8,-171.59 371.22,-181.9 377.12,-178.15"/>
</g>
<!-- 542 -->
<g id="node13" class="node">
<title>542</title>
<ellipse fill="none" stroke="black" cx="416.44" cy="-155.85" rx="20.86" ry="20.86"/>
<text text-anchor="middle" x="416.44" y="-152.93" font-family="Times New Roman,serif" font-size="9.00">542</text>
</g>
<!-- &#45;2 &#45; Right poison sensor&#45;&gt;542 -->
<g id="edge22" class="edge">
<title>&#45;2 &#45; Right poison sensor&#45;&gt;542</title>
<path fill="none" stroke="red" stroke-width="0.2" d="M402.66,-212.37C404.34,-205.61 406.74,-195.93 409.07,-186.54"/>
<polygon fill="red" stroke="red" stroke-width="0.2" points="412.45,-187.45 411.46,-176.9 405.66,-185.77 412.45,-187.45"/>
</g>
<!-- &#45;3 &#45; Left poison sensor -->
<g id="node3" class="node">
<title>&#45;3 &#45; Left poison sensor</title>
<polygon fill="lightgray" stroke="black" points="568.69,-231.96 470.19,-231.96 470.19,-212.71 568.69,-212.71 568.69,-231.96"/>
<text text-anchor="middle" x="519.44" y="-219.41" font-family="Times New Roman,serif" font-size="9.00">&#45;3 &#45; Left poison sensor</text>
</g>
<!-- 0 &#45; left_speed -->
<g id="node6" class="node">
<title>0 &#45; left_speed</title>
<ellipse fill="lightblue" stroke="black" cx="313.44" cy="-49.5" rx="46.32" ry="46.32"/>
<text text-anchor="middle" x="313.44" y="-46.57" font-family="Times New Roman,serif" font-size="9.00">0 &#45; left_speed</text>
</g>
<!-- &#45;3 &#45; Left poison sensor&#45;&gt;0 &#45; left_speed -->
<g id="edge5" class="edge">
<title>&#45;3 &#45; Left poison sensor&#45;&gt;0 &#45; left_speed</title>
<path fill="none" stroke="red" stroke-width="0.34" d="M519.94,-212.41C520.42,-195.39 519.1,-158 500.44,-134.99 467.68,-94.61 411.48,-72.81 369.23,-61.53"/>
<polygon fill="red" stroke="red" stroke-width="0.34" points="370.13,-58.14 359.57,-59.07 368.4,-64.93 370.13,-58.14"/>
</g>
<!-- &#45;3 &#45; Left poison sensor&#45;&gt;34 -->
<g id="edge4" class="edge">
<title>&#45;3 &#45; Left poison sensor&#45;&gt;34</title>
<path fill="none" stroke="green" stroke-width="0.43" d="M513.04,-212.37C506.96,-203.85 497.57,-190.69 489.46,-179.32"/>
<polygon fill="green" stroke="green" stroke-width="0.43" points="492.35,-177.34 483.69,-171.23 486.65,-181.41 492.35,-177.34"/>
</g>
<!-- &#45;4 &#45; Right food sensor -->
<g id="node4" class="node">
<title>&#45;4 &#45; Right food sensor</title>
<polygon fill="lightgray" stroke="black" points="330.81,-231.96 236.06,-231.96 236.06,-212.71 330.81,-212.71 330.81,-231.96"/>
<text text-anchor="middle" x="283.44" y="-219.41" font-family="Times New Roman,serif" font-size="9.00">&#45;4 &#45; Right food sensor</text>
</g>
<!-- &#45;4 &#45; Right food sensor&#45;&gt;0 &#45; left_speed -->
<g id="edge16" class="edge">
<title>&#45;4 &#45; Right food sensor&#45;&gt;0 &#45; left_speed</title>
<path fill="none" stroke="green" stroke-width="0.17" d="M285.87,-212.5C288.28,-203.54 291.96,-189.24 294.44,-176.71 299.01,-153.62 303.06,-127.96 306.23,-105.84"/>
<polygon fill="green" stroke="green" stroke-width="0.17" points="309.66,-106.59 307.59,-96.2 302.73,-105.61 309.66,-106.59"/>
</g>
<!-- &#45;4 &#45; Right food sensor&#45;&gt;32 -->
<g id="edge17" class="edge">
<title>&#45;4 &#45; Right food sensor&#45;&gt;32</title>
<path fill="none" stroke="green" stroke-width="0.19" d="M235.72,-217.77C189.5,-212.94 118.25,-201.83 61.44,-176.71 59.6,-175.9 57.77,-174.95 55.97,-173.91"/>
<polygon fill="green" stroke="green" stroke-width="0.19" points="57.95,-171.02 47.69,-168.36 54.05,-176.83 57.95,-171.02"/>
</g>
<!-- &#45;4 &#45; Right food sensor&#45;&gt;35 -->
<g id="edge1" class="edge">
<title>&#45;4 &#45; Right food sensor&#45;&gt;35</title>
<path fill="none" stroke="red" stroke-width="0.15" d="M294,-212.37C305.5,-202.62 324.16,-186.78 338.62,-174.52"/>
<polygon fill="red" stroke="red" stroke-width="0.15" points="340.62,-177.41 345.98,-168.28 336.09,-172.08 340.62,-177.41"/>
</g>
<!-- &#45;5 &#45; Left food sensor -->
<g id="node5" class="node">
<title>&#45;5 &#45; Left food sensor</title>
<polygon fill="lightgray" stroke="black" points="160.56,-165.48 70.31,-165.48 70.31,-146.23 160.56,-146.23 160.56,-165.48"/>
<text text-anchor="middle" x="115.44" y="-152.93" font-family="Times New Roman,serif" font-size="9.00">&#45;5 &#45; Left food sensor</text>
</g>
<!-- &#45;5 &#45; Left food sensor&#45;&gt;0 &#45; left_speed -->
<g id="edge3" class="edge">
<title>&#45;5 &#45; Left food sensor&#45;&gt;0 &#45; left_speed</title>
<path fill="none" stroke="red" stroke-width="0.52" d="M132.66,-145.78C161.44,-130.61 220.35,-99.56 263.12,-77.02"/>
<polygon fill="red" stroke="red" stroke-width="0.52" points="264.62,-80.18 271.83,-72.42 261.36,-73.99 264.62,-80.18"/>
</g>
<!-- &#45;5 &#45; Left food sensor&#45;&gt;1 &#45; right_speed -->
<g id="edge18" class="edge">
<title>&#45;5 &#45; Left food sensor&#45;&gt;1 &#45; right_speed</title>
<path fill="none" stroke="red" stroke-width="0.18" d="M112.03,-145.96C108.46,-136.65 102.54,-121.21 96.49,-105.43"/>
<polygon fill="red" stroke="red" stroke-width="0.18" points="99.88,-104.49 93.03,-96.41 93.34,-107 99.88,-104.49"/>
</g>
<!-- 34&#45;&gt;0 &#45; left_speed -->
<g id="edge10" class="edge">
<title>34&#45;&gt;0 &#45; left_speed</title>
<path fill="none" stroke="red" stroke-width="0.1" d="M459.55,-144.36C455.38,-141.28 450.76,-137.95 446.44,-134.99 418.65,-115.98 386.84,-95.72 361.29,-79.8"/>
<polygon fill="red" stroke="red" stroke-width="0.1" points="363.36,-76.96 353.01,-74.66 359.66,-82.91 363.36,-76.96"/>
</g>
<!-- 32&#45;&gt;1 &#45; right_speed -->
<g id="edge11" class="edge">
<title>32&#45;&gt;1 &#45; right_speed</title>
<path fill="none" stroke="green" stroke-width="0.47" d="M40.66,-139C44.23,-129.92 48.95,-117.91 53.76,-105.68"/>
<polygon fill="green" stroke="green" stroke-width="0.47" points="56.95,-107.13 57.35,-96.54 50.43,-104.57 56.95,-107.13"/>
</g>
<!-- 36&#45;&gt;0 &#45; left_speed -->
<g id="edge8" class="edge">
<title>36&#45;&gt;0 &#45; left_speed</title>
<path fill="none" stroke="green" stroke-width="0.12" d="M258.34,-140.34C265.12,-129.29 274.86,-113.4 284.28,-98.05"/>
<polygon fill="green" stroke="green" stroke-width="0.12" points="287.11,-100.12 289.36,-89.76 281.14,-96.46 287.11,-100.12"/>
</g>
<!-- 36&#45;&gt;1 &#45; right_speed -->
<g id="edge9" class="edge">
<title>36&#45;&gt;1 &#45; right_speed</title>
<path fill="none" stroke="green" stroke-width="0.14" d="M235.92,-143.99C231.98,-140.97 227.6,-137.76 223.44,-134.99 192.6,-114.55 156.57,-93.91 127.78,-78.15"/>
<polygon fill="green" stroke="green" stroke-width="0.14" points="129.74,-75.23 119.28,-73.53 126.39,-81.38 129.74,-75.23"/>
</g>
<!-- 36&#45;&gt;36 -->
<g id="edge13" class="edge">
<title>36&#45;&gt;36</title>
<path fill="none" stroke="green" stroke-width="0.68" d="M263.72,-166.85C274.38,-170.69 285.11,-167.02 285.11,-155.85 285.11,-148.53 280.49,-144.43 274.3,-143.56"/>
<polygon fill="green" stroke="green" stroke-width="0.68" points="274.25,-140.04 264.75,-144.74 275.1,-146.99 274.25,-140.04"/>
</g>
<!-- 33&#45;&gt;0 &#45; left_speed -->
<g id="edge14" class="edge">
<title>33&#45;&gt;0 &#45; left_speed</title>
<path fill="none" stroke="green" stroke-width="0.52" d="M209.4,-143.29C224.35,-129.96 249.66,-107.38 271.58,-87.83"/>
<polygon fill="green" stroke="green" stroke-width="0.52" points="273.75,-90.58 278.89,-81.31 269.09,-85.36 273.75,-90.58"/>
</g>
<!-- 35&#45;&gt;0 &#45; left_speed -->
<g id="edge6" class="edge">
<title>35&#45;&gt;0 &#45; left_speed</title>
<path fill="none" stroke="red" stroke-width="0.73" d="M352.65,-139.46C348.23,-129.42 342.17,-115.69 336.15,-102.02"/>
<polygon fill="red" stroke="red" stroke-width="0.73" points="339.47,-100.88 332.23,-93.14 333.06,-103.7 339.47,-100.88"/>
</g>
</g>
</svg>
