<?xml version="1.0" encoding="UTF-8" standalone="no"?>
<!DOCTYPE svg PUBLIC "-//W3C//DTD SVG 1.1//EN"
 "http://www.w3.org/Graphics/SVG/1.1/DTD/svg11.dtd">
<!-- Generated by graphviz version 9.0.0 (20230911.1827)
 -->
<!-- Pages: 1 -->
<svg width="648pt" height="240pt"
 viewBox="0.00 0.00 647.66 239.96" xmlns="http://www.w3.org/2000/svg" xmlns:xlink="http://www.w3.org/1999/xlink">
<g id="graph0" class="graph" transform="scale(1 1) rotate(0) translate(4 235.96)">
<polygon fill="white" stroke="none" points="-4,4 -4,-235.96 643.66,-235.96 643.66,4 -4,4"/>
<!-- &#45;1 &#45; Energy sensor -->
<g id="node1" class="node">
<title>&#45;1 &#45; Energy sensor</title>
<polygon fill="lightgray" stroke="black" points="504.86,-231.96 422.86,-231.96 422.86,-212.71 504.86,-212.71 504.86,-231.96"/>
<text text-anchor="middle" x="463.86" y="-219.41" font-family="Times New Roman,serif" font-size="9.00">&#45;1 &#45; Energy sensor</text>
</g>
<!-- 1 &#45; right_speed -->
<g id="node7" class="node">
<title>1 &#45; right_speed</title>
<ellipse fill="lightblue" stroke="black" cx="180.86" cy="-49.5" rx="49.5" ry="49.5"/>
<text text-anchor="middle" x="180.86" y="-46.57" font-family="Times New Roman,serif" font-size="9.00">1 &#45; right_speed</text>
</g>
<!-- &#45;1 &#45; Energy sensor&#45;&gt;1 &#45; right_speed -->
<g id="edge8" class="edge">
<title>&#45;1 &#45; Energy sensor&#45;&gt;1 &#45; right_speed</title>
<path fill="none" stroke="green" stroke-width="0.29" d="M422.47,-213.72C393.95,-207.11 356.07,-195.58 326.86,-176.71 305.79,-163.11 307.25,-152.05 288.86,-134.99 270.24,-117.72 248.37,-100.16 229.21,-85.56"/>
<polygon fill="green" stroke="green" stroke-width="0.29" points="231.33,-82.78 221.25,-79.55 227.12,-88.37 231.33,-82.78"/>
</g>
<!-- 32 -->
<g id="node8" class="node">
<title>32</title>
<ellipse fill="white" stroke="black" cx="587.86" cy="-155.85" rx="17.68" ry="17.68"/>
<text text-anchor="middle" x="587.86" y="-152.93" font-family="Times New Roman,serif" font-size="9.00">32</text>
</g>
<!-- &#45;1 &#45; Energy sensor&#45;&gt;32 -->
<g id="edge2" class="edge">
<title>&#45;1 &#45; Energy sensor&#45;&gt;32</title>
<path fill="none" stroke="red" stroke-width="0.45" d="M487.57,-212.3C507.9,-204.14 537.64,-191.22 561.86,-176.71 563.2,-175.91 564.55,-175.05 565.9,-174.16"/>
<polygon fill="red" stroke="red" stroke-width="0.45" points="567.87,-177.05 573.95,-168.37 563.78,-171.37 567.87,-177.05"/>
</g>
<!-- 33 -->
<g id="node10" class="node">
<title>33</title>
<ellipse fill="white" stroke="black" cx="534.86" cy="-155.85" rx="17.68" ry="17.68"/>
<text text-anchor="middle" x="534.86" y="-152.93" font-family="Times New Roman,serif" font-size="9.00">33</text>
</g>
<!-- &#45;1 &#45; Energy sensor&#45;&gt;33 -->
<g id="edge23" class="edge">
<title>&#45;1 &#45; Energy sensor&#45;&gt;33</title>
<path fill="none" stroke="red" stroke-width="0.18" d="M473.73,-212.37C484.24,-202.83 501.17,-187.45 514.55,-175.3"/>
<polygon fill="red" stroke="red" stroke-width="0.18" points="516.69,-178.09 521.74,-168.77 511.98,-172.9 516.69,-178.09"/>
</g>
<!-- 35 -->
<g id="node11" class="node">
<title>35</title>
<ellipse fill="white" stroke="black" cx="463.86" cy="-155.85" rx="17.68" ry="17.68"/>
<text text-anchor="middle" x="463.86" y="-152.93" font-family="Times New Roman,serif" font-size="9.00">35</text>
</g>
<!-- &#45;1 &#45; Energy sensor&#45;&gt;35 -->
<g id="edge13" class="edge">
<title>&#45;1 &#45; Energy sensor&#45;&gt;35</title>
<path fill="none" stroke="green" stroke-width="0.22" stroke-dasharray="1,5" d="M463.86,-212.37C463.86,-205.03 463.86,-194.23 463.86,-184.11"/>
<polygon fill="green" stroke="green" stroke-width="0.22" points="467.36,-184.3 463.86,-174.3 460.36,-184.3 467.36,-184.3"/>
</g>
<!-- 36 -->
<g id="node12" class="node">
<title>36</title>
<ellipse fill="white" stroke="black" cx="353.86" cy="-155.85" rx="17.68" ry="17.68"/>
<text text-anchor="middle" x="353.86" y="-152.93" font-family="Times New Roman,serif" font-size="9.00">36</text>
</g>
<!-- &#45;1 &#45; Energy sensor&#45;&gt;36 -->
<g id="edge14" class="edge">
<title>&#45;1 &#45; Energy sensor&#45;&gt;36</title>
<path fill="none" stroke="green" stroke-width="0.25" d="M448.56,-212.37C430.26,-201.64 399.38,-183.54 377.88,-170.94"/>
<polygon fill="green" stroke="green" stroke-width="0.25" points="379.74,-167.97 369.35,-165.93 376.2,-174.01 379.74,-167.97"/>
</g>
<!-- &#45;2 &#45; Right poison sensor -->
<g id="node2" class="node">
<title>&#45;2 &#45; Right poison sensor</title>
<polygon fill="lightgray" stroke="black" points="241.36,-231.96 138.36,-231.96 138.36,-212.71 241.36,-212.71 241.36,-231.96"/>
<text text-anchor="middle" x="189.86" y="-219.41" font-family="Times New Roman,serif" font-size="9.00">&#45;2 &#45; Right poison sensor</text>
</g>
<!-- &#45;2 &#45; Right poison sensor&#45;&gt;1 &#45; right_speed -->
<g id="edge26" class="edge">
<title>&#45;2 &#45; Right poison sensor&#45;&gt;1 &#45; right_speed</title>
<path fill="none" stroke="green" stroke-width="0.47" stroke-dasharray="1,5" d="M146.41,-212.36C126.83,-205.91 105.52,-195 93.86,-176.71 73.63,-145 102.27,-109.82 131.98,-84.68"/>
<polygon fill="green" stroke="green" stroke-width="0.47" points="133.85,-87.67 139.38,-78.63 129.42,-82.24 133.85,-87.67"/>
</g>
<!-- 34 -->
<g id="node9" class="node">
<title>34</title>
<ellipse fill="white" stroke="black" cx="261.86" cy="-155.85" rx="17.68" ry="17.68"/>
<text text-anchor="middle" x="261.86" y="-152.93" font-family="Times New Roman,serif" font-size="9.00">34</text>
</g>
<!-- &#45;2 &#45; Right poison sensor&#45;&gt;34 -->
<g id="edge17" class="edge">
<title>&#45;2 &#45; Right poison sensor&#45;&gt;34</title>
<path fill="none" stroke="green" stroke-width="0.27" d="M199.87,-212.37C210.59,-202.77 227.91,-187.26 241.51,-175.08"/>
<polygon fill="green" stroke="green" stroke-width="0.27" points="243.6,-177.9 248.72,-168.63 238.93,-172.69 243.6,-177.9"/>
</g>
<!-- &#45;2 &#45; Right poison sensor&#45;&gt;35 -->
<g id="edge25" class="edge">
<title>&#45;2 &#45; Right poison sensor&#45;&gt;35</title>
<path fill="none" stroke="red" stroke-width="0.31" d="M238.28,-212.23C280.82,-203.94 344.27,-190.85 398.86,-176.71 411.67,-173.4 425.73,-169.17 437.49,-165.48"/>
<polygon fill="red" stroke="red" stroke-width="0.31" points="438.23,-168.91 446.7,-162.54 436.11,-162.24 438.23,-168.91"/>
</g>
<!-- &#45;2 &#45; Right poison sensor&#45;&gt;36 -->
<g id="edge24" class="edge">
<title>&#45;2 &#45; Right poison sensor&#45;&gt;36</title>
<path fill="none" stroke="red" stroke-width="0.13" d="M213.01,-212.24C243.44,-200.27 296.74,-179.31 328.32,-166.9"/>
<polygon fill="red" stroke="red" stroke-width="0.13" points="329.54,-170.18 337.57,-163.26 326.98,-163.66 329.54,-170.18"/>
</g>
<!-- 542 -->
<g id="node13" class="node">
<title>542</title>
<ellipse fill="white" stroke="black" cx="20.86" cy="-155.85" rx="20.86" ry="20.86"/>
<text text-anchor="middle" x="20.86" y="-152.93" font-family="Times New Roman,serif" font-size="9.00">542</text>
</g>
<!-- &#45;2 &#45; Right poison sensor&#45;&gt;542 -->
<g id="edge27" class="edge">
<title>&#45;2 &#45; Right poison sensor&#45;&gt;542</title>
<path fill="none" stroke="red" stroke-width="0.2" d="M156.69,-212.26C129.16,-204.25 89.24,-191.57 55.86,-176.71 53.02,-175.45 50.1,-174.02 47.23,-172.53"/>
<polygon fill="red" stroke="red" stroke-width="0.2" points="49.03,-169.53 38.58,-167.79 45.67,-175.66 49.03,-169.53"/>
</g>
<!-- &#45;3 &#45; Left poison sensor -->
<g id="node3" class="node">
<title>&#45;3 &#45; Left poison sensor</title>
<polygon fill="lightgray" stroke="black" points="358.11,-231.96 259.61,-231.96 259.61,-212.71 358.11,-212.71 358.11,-231.96"/>
<text text-anchor="middle" x="308.86" y="-219.41" font-family="Times New Roman,serif" font-size="9.00">&#45;3 &#45; Left poison sensor</text>
</g>
<!-- 0 &#45; left_speed -->
<g id="node6" class="node">
<title>0 &#45; left_speed</title>
<ellipse fill="lightblue" stroke="black" cx="417.86" cy="-49.5" rx="46.32" ry="46.32"/>
<text text-anchor="middle" x="417.86" y="-46.57" font-family="Times New Roman,serif" font-size="9.00">0 &#45; left_speed</text>
</g>
<!-- &#45;3 &#45; Left poison sensor&#45;&gt;0 &#45; left_speed -->
<g id="edge5" class="edge">
<title>&#45;3 &#45; Left poison sensor&#45;&gt;0 &#45; left_speed</title>
<path fill="none" stroke="red" stroke-width="0.34" d="M344.9,-212.24C363.91,-205.56 385.91,-194.47 398.86,-176.71 413.47,-156.67 418.94,-130.02 420.46,-106.38"/>
<polygon fill="red" stroke="red" stroke-width="0.34" points="423.95,-106.76 420.88,-96.62 416.96,-106.47 423.95,-106.76"/>
</g>
<!-- &#45;3 &#45; Left poison sensor&#45;&gt;1 &#45; right_speed -->
<g id="edge18" class="edge">
<title>&#45;3 &#45; Left poison sensor&#45;&gt;1 &#45; right_speed</title>
<path fill="none" stroke="green" stroke-width="0.66" stroke-dasharray="1,5" d="M259.36,-212.43C208.35,-202.76 135.14,-187.27 126.86,-176.71 107.76,-152.37 121.92,-120.26 140.52,-94.51"/>
<polygon fill="green" stroke="green" stroke-width="0.66" points="143.09,-96.92 146.35,-86.84 137.51,-92.69 143.09,-96.92"/>
</g>
<!-- &#45;3 &#45; Left poison sensor&#45;&gt;34 -->
<g id="edge4" class="edge">
<title>&#45;3 &#45; Left poison sensor&#45;&gt;34</title>
<path fill="none" stroke="green" stroke-width="0.43" d="M302.32,-212.37C296.05,-203.77 286.33,-190.43 277.99,-178.98"/>
<polygon fill="green" stroke="green" stroke-width="0.43" points="281.06,-177.25 272.34,-171.23 275.4,-181.37 281.06,-177.25"/>
</g>
<!-- &#45;4 &#45; Right food sensor -->
<g id="node4" class="node">
<title>&#45;4 &#45; Right food sensor</title>
<polygon fill="lightgray" stroke="black" points="635.23,-231.96 540.48,-231.96 540.48,-212.71 635.23,-212.71 635.23,-231.96"/>
<text text-anchor="middle" x="587.86" y="-219.41" font-family="Times New Roman,serif" font-size="9.00">&#45;4 &#45; Right food sensor</text>
</g>
<!-- &#45;4 &#45; Right food sensor&#45;&gt;0 &#45; left_speed -->
<g id="edge19" class="edge">
<title>&#45;4 &#45; Right food sensor&#45;&gt;0 &#45; left_speed</title>
<path fill="none" stroke="green" stroke-width="0.17" d="M601.79,-212.24C612.53,-204.31 626.6,-191.75 632.86,-176.71 639.99,-159.6 643.3,-150.32 632.86,-134.99 597.5,-83.11 524.98,-63.08 473.97,-55.35"/>
<polygon fill="green" stroke="green" stroke-width="0.17" points="474.72,-51.92 464.33,-54 473.74,-58.86 474.72,-51.92"/>
</g>
<!-- &#45;4 &#45; Right food sensor&#45;&gt;32 -->
<g id="edge20" class="edge">
<title>&#45;4 &#45; Right food sensor&#45;&gt;32</title>
<path fill="none" stroke="green" stroke-width="0.19" d="M587.86,-212.37C587.86,-205.03 587.86,-194.23 587.86,-184.11"/>
<polygon fill="green" stroke="green" stroke-width="0.19" points="591.36,-184.26 587.86,-174.26 584.36,-184.26 591.36,-184.26"/>
</g>
<!-- &#45;4 &#45; Right food sensor&#45;&gt;35 -->
<g id="edge1" class="edge">
<title>&#45;4 &#45; Right food sensor&#45;&gt;35</title>
<path fill="none" stroke="red" stroke-width="0.15" d="M570.36,-212.24C548.9,-201.08 512.43,-182.11 488.24,-169.53"/>
<polygon fill="red" stroke="red" stroke-width="0.15" points="490.01,-166.51 479.52,-165 486.78,-172.72 490.01,-166.51"/>
</g>
<!-- &#45;5 &#45; Left food sensor -->
<g id="node5" class="node">
<title>&#45;5 &#45; Left food sensor</title>
<polygon fill="lightgray" stroke="black" points="225.98,-165.48 135.73,-165.48 135.73,-146.23 225.98,-146.23 225.98,-165.48"/>
<text text-anchor="middle" x="180.86" y="-152.93" font-family="Times New Roman,serif" font-size="9.00">&#45;5 &#45; Left food sensor</text>
</g>
<!-- &#45;5 &#45; Left food sensor&#45;&gt;0 &#45; left_speed -->
<g id="edge3" class="edge">
<title>&#45;5 &#45; Left food sensor&#45;&gt;0 &#45; left_speed</title>
<path fill="none" stroke="red" stroke-width="0.52" d="M201.48,-145.78C237.87,-129.75 314.53,-96 366.12,-73.28"/>
<polygon fill="red" stroke="red" stroke-width="0.52" points="367.31,-76.58 375.05,-69.35 364.49,-70.17 367.31,-76.58"/>
</g>
<!-- &#45;5 &#45; Left food sensor&#45;&gt;1 &#45; right_speed -->
<g id="edge21" class="edge">
<title>&#45;5 &#45; Left food sensor&#45;&gt;1 &#45; right_speed</title>
<path fill="none" stroke="red" stroke-width="0.18" d="M180.86,-145.96C180.86,-137.43 180.86,-123.76 180.86,-109.4"/>
<polygon fill="red" stroke="red" stroke-width="0.18" points="184.36,-109.67 180.86,-99.67 177.36,-109.67 184.36,-109.67"/>
</g>
<!-- 32&#45;&gt;1 &#45; right_speed -->
<g id="edge12" class="edge">
<title>32&#45;&gt;1 &#45; right_speed</title>
<path fill="none" stroke="green" stroke-width="0.47" d="M575.14,-143.24C571.14,-140.13 566.54,-137.06 561.86,-134.99 479.63,-98.7 450.58,-118.58 362.86,-98.99 321.03,-89.66 274.33,-77.17 238.71,-67.2"/>
<polygon fill="green" stroke="green" stroke-width="0.47" points="239.76,-63.86 229.18,-64.52 237.86,-70.6 239.76,-63.86"/>
</g>
<!-- 32&#45;&gt;32 -->
<g id="edge22" class="edge">
<title>32&#45;&gt;32</title>
<path fill="none" stroke="red" stroke-width="0.49" stroke-dasharray="1,5" d="M602.15,-166.85C612.8,-170.69 623.54,-167.02 623.54,-155.85 623.54,-148.53 618.91,-144.43 612.72,-143.56"/>
<polygon fill="red" stroke="red" stroke-width="0.49" points="612.38,-140.08 602.88,-144.77 613.23,-147.03 612.38,-140.08"/>
</g>
<!-- 34&#45;&gt;0 &#45; left_speed -->
<g id="edge11" class="edge">
<title>34&#45;&gt;0 &#45; left_speed</title>
<path fill="none" stroke="red" stroke-width="0.1" d="M276.26,-145.22C297.74,-130.85 339.15,-103.15 371.67,-81.4"/>
<polygon fill="red" stroke="red" stroke-width="0.1" points="373.23,-84.56 379.6,-76.09 369.34,-78.75 373.23,-84.56"/>
</g>
<!-- 33&#45;&gt;0 &#45; left_speed -->
<g id="edge16" class="edge">
<title>33&#45;&gt;0 &#45; left_speed</title>
<path fill="none" stroke="green" stroke-width="0.52" d="M521.89,-143.29C506.95,-129.96 481.63,-107.38 459.72,-87.83"/>
<polygon fill="green" stroke="green" stroke-width="0.52" points="462.2,-85.36 452.41,-81.31 457.54,-90.58 462.2,-85.36"/>
</g>
<!-- 35&#45;&gt;0 &#45; left_speed -->
<g id="edge7" class="edge">
<title>35&#45;&gt;0 &#45; left_speed</title>
<path fill="none" stroke="red" stroke-width="0.73" d="M457.07,-139.46C452.65,-129.42 446.6,-115.69 440.57,-102.02"/>
<polygon fill="red" stroke="red" stroke-width="0.73" points="443.89,-100.88 436.66,-93.14 437.49,-103.7 443.89,-100.88"/>
</g>
<!-- 35&#45;&gt;35 -->
<g id="edge6" class="edge">
<title>35&#45;&gt;35</title>
<path fill="none" stroke="red" stroke-width="0.13" stroke-dasharray="1,5" d="M478.15,-166.85C488.8,-170.69 499.54,-167.02 499.54,-155.85 499.54,-148.18 494.46,-144.05 487.83,-143.46"/>
<polygon fill="red" stroke="red" stroke-width="0.13" points="487.74,-139.94 478.34,-144.83 488.74,-146.87 487.74,-139.94"/>
</g>
<!-- 36&#45;&gt;0 &#45; left_speed -->
<g id="edge9" class="edge">
<title>36&#45;&gt;0 &#45; left_speed</title>
<path fill="none" stroke="green" stroke-width="0.12" d="M362.76,-140.34C369.54,-129.29 379.28,-113.4 388.7,-98.05"/>
<polygon fill="green" stroke="green" stroke-width="0.12" points="391.54,-100.12 393.78,-89.76 385.57,-96.46 391.54,-100.12"/>
</g>
<!-- 36&#45;&gt;1 &#45; right_speed -->
<g id="edge10" class="edge">
<title>36&#45;&gt;1 &#45; right_speed</title>
<path fill="none" stroke="green" stroke-width="0.14" d="M338.91,-145.51C333.55,-142.17 327.44,-138.4 321.86,-134.99 292.07,-116.83 258.57,-96.74 231.7,-80.71"/>
<polygon fill="green" stroke="green" stroke-width="0.14" points="233.8,-77.88 223.41,-75.77 230.21,-83.89 233.8,-77.88"/>
</g>
<!-- 36&#45;&gt;36 -->
<g id="edge15" class="edge">
<title>36&#45;&gt;36</title>
<path fill="none" stroke="green" stroke-width="0.68" d="M368.15,-166.85C378.8,-170.69 389.54,-167.02 389.54,-155.85 389.54,-148.53 384.91,-144.43 378.72,-143.56"/>
<polygon fill="green" stroke="green" stroke-width="0.68" points="378.67,-140.04 369.17,-144.74 379.52,-146.99 378.67,-140.04"/>
</g>
<!-- 542&#45;&gt;1 &#45; right_speed -->
<g id="edge28" class="edge">
<title>542&#45;&gt;1 &#45; right_speed</title>
<path fill="none" stroke="green" stroke-width="0.25" stroke-dasharray="1,5" d="M37.98,-143.69C60.11,-129.25 99.57,-103.52 131.43,-82.74"/>
<polygon fill="green" stroke="green" stroke-width="0.25" points="132.99,-85.9 139.46,-77.5 129.17,-80.03 132.99,-85.9"/>
</g>
</g>
</svg>
